<svg width="30" height="30" viewBox="0 0 30 30" fill="none" xmlns="http://www.w3.org/2000/svg">
<path d="M11.4997 29.2497H5.35234V19.7725C5.35234 18.7975 6.14982 18.0001 7.12479 18.0001H9.72471C10.6997 18.0001 11.4972 18.7975 11.4972 19.7725V29.2497H11.4997Z" fill="#795548"/>
<path opacity="0.2" d="M9.7272 18.75C10.2922 18.75 10.7497 19.21 10.7497 19.7725V28.4997H6.10231V19.7725C6.10231 19.2075 6.5623 18.75 7.12478 18.75H9.7272ZM9.7272 18.0001H7.12728C6.15231 18.0001 5.35484 18.7975 5.35484 19.7725V29.2497H11.4996V19.7725C11.4996 18.7975 10.7022 18.0001 9.7272 18.0001Z" fill="#424242"/>
<path d="M0.115001 13.8752C0.274996 10.3628 5.95732 0.673105 5.95732 0.673105C6.26231 -0.224368 7.94726 -0.224368 8.25225 0.673105C8.25225 0.673105 13.7671 10.4503 13.7546 13.9527C13.7446 17.4076 12.9046 22.2 7.10479 22.2C1.13497 22.2 -0.0449941 17.3251 0.115001 13.8752Z" fill="url(#paint0_radial_23_311)"/>
<path opacity="0.2" d="M7.10479 0.803086C7.34228 0.803086 7.47978 0.895583 7.49228 0.930582L7.51728 1.00058L7.55477 1.06558C9.05723 3.7355 12.9596 11.2503 12.9521 13.9502C12.9371 19.03 11.0772 21.3975 7.10479 21.3975C5.18485 21.3975 3.68739 20.8475 2.65242 19.765C0.987474 18.0226 0.849979 15.3501 0.914977 13.9102C1.03997 11.1953 5.09735 3.7255 6.6498 1.07808L6.6898 1.00808L6.7148 0.930582C6.7273 0.895583 6.8648 0.803086 7.10479 0.803086ZM7.10479 0.000610352C6.6073 0.000610352 6.10982 0.225604 5.95732 0.67309C5.95732 0.67309 0.274996 10.3628 0.115001 13.8752C-0.0449941 17.3251 1.13497 22.1999 7.10479 22.1999C12.9046 22.1999 13.7446 17.4076 13.7546 13.9527C13.7646 10.4503 8.25225 0.67309 8.25225 0.67309C8.09976 0.225604 7.60227 0.000610352 7.10479 0.000610352Z" fill="#424242"/>
<path d="M0.252487 28.1923C0.244987 27.8998 0.259987 27.3873 0.412482 26.8673C0.592477 26.2548 0.989964 25.4798 1.84994 25.2699C1.98993 25.2349 2.13243 25.2174 2.27243 25.2174C2.38492 25.2174 2.49992 25.2274 2.61241 25.2499C2.62741 25.2524 2.64491 25.2548 2.65991 25.2548C2.76991 25.2548 2.86741 25.1824 2.89991 25.0749C3.1249 24.3049 3.83988 23.7674 4.64235 23.7674C5.27483 23.7674 5.84982 24.0874 6.18481 24.6249C6.2323 24.6999 6.3123 24.7424 6.3973 24.7424C6.4173 24.7424 6.4373 24.7399 6.4573 24.7349C6.59979 24.6999 6.74479 24.6824 6.88978 24.6824C6.99978 24.6824 7.10978 24.6924 7.21727 24.7124C8.00975 24.8549 8.61473 25.4973 8.69223 26.2773C8.71723 26.5273 8.66973 26.7723 8.55973 26.9698C8.50473 27.0673 8.51473 27.2023 8.59473 27.2823C8.77473 27.4623 8.78223 27.7623 8.69723 27.9648C8.66973 28.0323 8.58723 28.1898 8.44224 28.1898H0.252487V28.1923Z" fill="url(#paint1_radial_23_311)"/>
<path d="M4.64236 24.0199C5.18735 24.0199 5.68483 24.2974 5.97232 24.7599C6.06482 24.9099 6.22731 24.9949 6.39731 24.9949C6.43731 24.9949 6.47731 24.9899 6.5173 24.9799C6.6398 24.9499 6.7648 24.9349 6.88979 24.9349C6.98479 24.9349 7.07979 24.9424 7.17478 24.9599C7.84476 25.0799 8.37975 25.6449 8.44475 26.3024C8.46475 26.5024 8.42725 26.6949 8.34225 26.8474C8.19975 27.1023 8.29475 27.3348 8.41725 27.4598C8.47724 27.5198 8.50725 27.6273 8.49724 27.7423C8.48725 27.8498 8.44475 27.9198 8.42475 27.9423H0.502487C0.509987 27.6673 0.544986 27.3023 0.652482 26.9374C0.887475 26.1374 1.31246 25.6574 1.90994 25.5124C2.02994 25.4824 2.15244 25.4674 2.27493 25.4674C2.37243 25.4674 2.46993 25.4774 2.56742 25.4949C2.59992 25.4999 2.62992 25.5049 2.65992 25.5049C2.87741 25.5049 3.07741 25.3624 3.13991 25.1449C3.3324 24.4824 3.94988 24.0199 4.64236 24.0199ZM4.64236 23.52C3.70239 23.52 2.90991 24.1474 2.65992 25.0074C2.53493 24.9849 2.40493 24.9699 2.27243 24.9699C2.11494 24.9699 1.95494 24.9874 1.78995 25.0274C0.927474 25.2374 0.422489 25.9449 0.172497 26.7974C-0.0724958 27.6273 0.0175015 28.4373 0.0175015 28.4448H8.44475C8.96973 28.4448 9.21222 27.5498 8.77224 27.1098C8.76974 27.1074 8.99473 26.7824 8.94223 26.2574C8.85473 25.3624 8.14726 24.6324 7.26478 24.4724C7.13729 24.4499 7.01479 24.4399 6.89229 24.4399C6.7223 24.4399 6.5573 24.4599 6.39981 24.4999C6.03232 23.9099 5.38234 23.52 4.64236 23.52Z" fill="#689F38"/>
<path d="M6.6723 25.8423C6.6723 25.8423 6.6923 25.2773 6.23482 24.6699" stroke="#0576DE" stroke-width="1.04542" stroke-miterlimit="10" stroke-linecap="round" stroke-linejoin="round"/>
<path d="M2.69242 25.2423C3.2274 25.2523 3.74989 25.6698 3.82739 26.1848" stroke="#0576DE" stroke-width="1.04542" stroke-miterlimit="10" stroke-linecap="round" stroke-linejoin="round"/>
<path d="M3.2424 26.4223C3.71239 26.2098 4.34487 26.2423 4.82985 26.4898" stroke="#0576DE" stroke-width="1.04542" stroke-miterlimit="10" stroke-linecap="round" stroke-linejoin="round"/>
<path d="M17.507 4.50043L5.84733 14.4951H6.6798V29.2372H28.3341V14.4951H29.1666L17.507 4.50043Z" fill="url(#paint2_radial_23_311)"/>
<path opacity="0.2" d="M17.507 5.4879L27.6517 14.1826C27.6092 14.2776 27.5842 14.3826 27.5842 14.4926V28.4847H7.42978V14.4951C7.42978 14.3851 7.40478 14.2776 7.36228 14.1851L17.507 5.4879ZM17.507 4.50043L5.84733 14.4951H6.6798V29.2372H28.3341V14.4951H29.1666L17.507 4.50043Z" fill="#424242"/>
<path opacity="0.2" d="M19.3794 9.08281C19.6094 9.08281 19.7969 9.2703 19.7969 9.5003V13.2477C19.7969 13.4777 19.6094 13.6652 19.3794 13.6652H15.632C15.402 13.6652 15.2145 13.4777 15.2145 13.2477V9.4978C15.2145 9.2678 15.402 9.08031 15.632 9.08031H19.3794M19.3794 8.58282H15.632C15.127 8.58282 14.7146 8.99281 14.7146 9.5003V13.2477C14.7146 13.7527 15.1245 14.1652 15.632 14.1652H19.3794C19.8844 14.1652 20.2969 13.7552 20.2969 13.2477V9.4978C20.2969 8.99281 19.8869 8.58282 19.3794 8.58282Z" fill="#424242"/>
<path opacity="0.2" d="M24.5868 16.1601C24.8167 16.1601 25.0042 16.3476 25.0042 16.5776V22.4075C25.0042 22.6374 24.8167 22.8249 24.5868 22.8249H20.8369C20.6069 22.8249 20.4194 22.6374 20.4194 22.4075V16.5776C20.4194 16.3476 20.6069 16.1601 20.8369 16.1601H24.5868ZM24.5868 15.6602H20.8369C20.3319 15.6602 19.9194 16.0701 19.9194 16.5776V22.4075C19.9194 22.9124 20.3294 23.3249 20.8369 23.3249H24.5843C25.0892 23.3249 25.5017 22.9149 25.5017 22.4075V16.5776C25.5017 16.0726 25.0917 15.6602 24.5868 15.6602Z" fill="#424242"/>
<path d="M17.507 26.1548H10.0122V15.7451C10.0122 15.5151 10.1997 15.3276 10.4297 15.3276H17.092C17.322 15.3276 17.5095 15.5151 17.5095 15.7451V26.1548H17.507Z" fill="url(#paint3_radial_23_311)"/>
<path d="M16.6745 25.6498H10.8447C10.7297 25.6498 10.6372 25.5573 10.6372 25.4423V16.0426C10.6372 15.9276 10.7297 15.8351 10.8447 15.8351H16.6745C16.7895 15.8351 16.882 15.9276 16.882 16.0426V25.4423C16.882 25.5573 16.7895 25.6498 16.6745 25.6498Z" fill="url(#paint4_radial_23_311)"/>
<path d="M15.5295 9.39539H19.4844V13.3503H15.5295V9.39539Z" fill="#4FC3F7"/>
<path d="M15.217 9.49781V13.2452C15.217 13.4752 15.4045 13.6627 15.6345 13.6627H19.3819C19.6119 13.6627 19.7994 13.4752 19.7994 13.2452V9.49781C19.7994 9.26782 19.6119 9.08032 19.3819 9.08032H15.632C15.402 9.08282 15.217 9.26782 15.217 9.49781ZM19.3794 11.1628H17.7145V9.49781H19.3794V11.1628ZM17.2995 9.49781V11.1628H15.6345V9.49781H17.2995ZM15.632 11.5802H17.297V13.2452H15.632V11.5802ZM17.7145 13.2452V11.5802H19.3794V13.2452H17.7145Z" fill="#EEEEEE"/>
<path d="M20.6369 16.4726H24.7892V22.5099H20.6369V16.4726Z" fill="#4FC3F7"/>
<path d="M16.0495 19.9075H11.4697C11.3547 19.9075 11.2622 19.815 11.2622 19.7V16.7851C11.2622 16.6701 11.3547 16.5776 11.4697 16.5776H16.0495C16.1645 16.5776 16.257 16.6701 16.257 16.7851V19.7C16.257 19.815 16.1645 19.9075 16.0495 19.9075Z" fill="url(#paint5_radial_23_311)"/>
<path d="M16.0495 24.9049H11.4697C11.3547 24.9049 11.2622 24.8124 11.2622 24.6974V20.95C11.2622 20.835 11.3547 20.7425 11.4697 20.7425H16.0495C16.1645 20.7425 16.257 20.835 16.257 20.95V24.6974C16.257 24.8124 16.1645 24.9049 16.0495 24.9049Z" fill="url(#paint6_radial_23_311)"/>
<path d="M18.3444 26.8473H9.18222V26.0849C9.18222 25.7999 9.41221 25.5699 9.69721 25.5699H17.827C18.1119 25.5699 18.3419 25.7999 18.3419 26.0849V26.8473H18.3444Z" fill="url(#paint7_linear_23_311)"/>
<path opacity="0.3" d="M17.8295 25.8199C17.977 25.8199 18.0945 25.9399 18.0945 26.0849V26.5974H9.43221V26.0849C9.43221 25.9374 9.55221 25.8199 9.69721 25.8199H17.8295ZM17.8295 25.5699H9.69971C9.41472 25.5699 9.18472 25.7999 9.18472 26.0849V26.8473H18.3469V26.0849C18.3444 25.7999 18.1145 25.5699 17.8295 25.5699Z" fill="#263238"/>
<path opacity="0.2" d="M13.4548 26.0857C13.4737 26.0412 13.416 25.9741 13.3258 25.9356C13.2356 25.8972 13.1471 25.9021 13.1282 25.9466C13.1093 25.9911 13.167 26.0582 13.2572 26.0966C13.3474 26.135 13.4359 26.1301 13.4548 26.0857Z" fill="#424242"/>
<path opacity="0.2" d="M17.3769 26.4983C17.4039 26.4651 17.3754 26.3972 17.3132 26.3467C17.251 26.2963 17.1788 26.2823 17.1518 26.3155C17.1248 26.3487 17.1533 26.4166 17.2155 26.4671C17.2777 26.5175 17.3499 26.5315 17.3769 26.4983Z" fill="#424242"/>
<path opacity="0.08" d="M13.8221 26.4273C13.9408 26.4273 14.0371 26.3803 14.0371 26.3223C14.0371 26.2643 13.9408 26.2173 13.8221 26.2173C13.7034 26.2173 13.6071 26.2643 13.6071 26.3223C13.6071 26.3803 13.7034 26.4273 13.8221 26.4273Z" fill="#424242"/>
<path opacity="0.08" d="M15.6695 26.4148C15.7883 26.4148 15.8845 26.3678 15.8845 26.3098C15.8845 26.2518 15.7883 26.2048 15.6695 26.2048C15.5508 26.2048 15.4545 26.2518 15.4545 26.3098C15.4545 26.3678 15.5508 26.4148 15.6695 26.4148Z" fill="#424242"/>
<path opacity="0.08" d="M15.227 26.1348C15.3085 26.1348 15.3745 26.0945 15.3745 26.0448C15.3745 25.9951 15.3085 25.9548 15.227 25.9548C15.1456 25.9548 15.0795 25.9951 15.0795 26.0448C15.0795 26.0945 15.1456 26.1348 15.227 26.1348Z" fill="#424242"/>
<path opacity="0.08" d="M17.632 26.2073C17.7493 26.2073 17.8445 26.1502 17.8445 26.0798C17.8445 26.0094 17.7493 25.9523 17.632 25.9523C17.5146 25.9523 17.4195 26.0094 17.4195 26.0798C17.4195 26.1502 17.5146 26.2073 17.632 26.2073Z" fill="#424242"/>
<path opacity="0.08" d="M12.5396 26.0848C12.6211 26.0848 12.6871 26.0524 12.6871 26.0123C12.6871 25.9723 12.6211 25.9398 12.5396 25.9398C12.4582 25.9398 12.3921 25.9723 12.3921 26.0123C12.3921 26.0524 12.4582 26.0848 12.5396 26.0848Z" fill="#424242"/>
<path opacity="0.08" d="M16.7908 26.2603C16.9218 26.2405 17.0202 26.1725 17.0106 26.1083C17.0009 26.0442 16.8868 26.0082 16.7558 26.0279C16.6247 26.0476 16.5263 26.1157 16.536 26.1798C16.5456 26.244 16.6597 26.28 16.7908 26.2603Z" fill="#424242"/>
<path opacity="0.2" d="M12.9036 26.408C13.0286 26.3786 13.1182 26.3047 13.1036 26.2429C13.0891 26.1811 12.976 26.1547 12.851 26.1841C12.726 26.2134 12.6365 26.2874 12.651 26.3492C12.6655 26.411 12.7786 26.4373 12.9036 26.408Z" fill="#424242"/>
<path opacity="0.2" d="M16.052 26.1199C16.2149 26.1199 16.347 26.0718 16.347 26.0124C16.347 25.953 16.2149 25.9049 16.052 25.9049C15.8891 25.9049 15.757 25.953 15.757 26.0124C15.757 26.0718 15.8891 26.1199 16.052 26.1199Z" fill="#424242"/>
<path opacity="0.2" d="M14.3241 26.0246C14.406 25.9707 14.4532 25.898 14.4297 25.8622C14.4061 25.8265 14.3207 25.8412 14.2388 25.8952C14.157 25.9491 14.1097 26.0218 14.1332 26.0576C14.1568 26.0933 14.2422 26.0785 14.3241 26.0246Z" fill="#424242"/>
<path opacity="0.2" d="M15.0969 26.4201C15.1247 26.3599 15.0223 26.2534 14.8681 26.1822C14.7139 26.111 14.5664 26.102 14.5386 26.1622C14.5108 26.2223 14.6133 26.3289 14.7674 26.4001C14.9216 26.4713 15.0691 26.4803 15.0969 26.4201Z" fill="#424242"/>
<path opacity="0.2" d="M11.7336 26.5937C11.7606 26.5605 11.7321 26.4926 11.6699 26.4421C11.6077 26.3917 11.5355 26.3777 11.5085 26.4109C11.4815 26.4441 11.51 26.512 11.5722 26.5625C11.6344 26.6129 11.7066 26.6269 11.7336 26.5937Z" fill="#424242"/>
<path opacity="0.08" d="M10.0272 26.5098C10.1459 26.5098 10.2422 26.4628 10.2422 26.4048C10.2422 26.3468 10.1459 26.2998 10.0272 26.2998C9.90846 26.2998 9.8122 26.3468 9.8122 26.4048C9.8122 26.4628 9.90846 26.5098 10.0272 26.5098Z" fill="#424242"/>
<path opacity="0.08" d="M9.58471 26.2323C9.66617 26.2323 9.7322 26.192 9.7322 26.1423C9.7322 26.0926 9.66617 26.0523 9.58471 26.0523C9.50325 26.0523 9.43721 26.0926 9.43721 26.1423C9.43721 26.192 9.50325 26.2323 9.58471 26.2323Z" fill="#424242"/>
<path opacity="0.08" d="M11.9896 26.3048C12.107 26.3048 12.2021 26.2477 12.2021 26.1773C12.2021 26.1069 12.107 26.0498 11.9896 26.0498C11.8723 26.0498 11.7771 26.1069 11.7771 26.1773C11.7771 26.2477 11.8723 26.3048 11.9896 26.3048Z" fill="#424242"/>
<path opacity="0.08" d="M11.1487 26.3577C11.2797 26.338 11.3781 26.27 11.3685 26.2058C11.3588 26.1416 11.2447 26.1056 11.1136 26.1254C10.9826 26.1451 10.8842 26.2131 10.8938 26.2773C10.9035 26.3415 11.0176 26.3775 11.1487 26.3577Z" fill="#424242"/>
<path opacity="0.2" d="M10.4097 26.2148C10.5726 26.2148 10.7047 26.1667 10.7047 26.1073C10.7047 26.0479 10.5726 25.9998 10.4097 25.9998C10.2468 25.9998 10.1147 26.0479 10.1147 26.1073C10.1147 26.1667 10.2468 26.2148 10.4097 26.2148Z" fill="#424242"/>
<path d="M20.8369 16.1602C20.6069 16.1602 20.4194 16.3477 20.4194 16.5776V22.4075C20.4194 22.6375 20.6069 22.825 20.8369 22.825H24.5843C24.8143 22.825 25.0017 22.6375 25.0017 22.4075V16.5776C25.0017 16.3477 24.8143 16.1602 24.5843 16.1602H20.8369ZM22.9193 16.5776H24.5843V18.2426H22.9193V16.5776ZM20.8369 16.5776H22.5018V18.2426H20.8369V16.5776ZM20.8369 18.6601H22.5018V20.325H20.8369V18.6601ZM22.5043 22.4075H20.8394V20.7425H22.5043V22.4075ZM24.5868 22.4075H22.9218V20.7425H24.5868V22.4075ZM22.9193 20.325V18.6601H24.5843V20.325H22.9193Z" fill="#EEEEEE"/>
<path d="M15.9945 21.4075C15.512 21.4075 15.1195 21.015 15.1195 20.5325C15.1195 20.05 15.512 19.6575 15.9945 19.6575C16.477 19.6575 16.8695 20.05 16.8695 20.5325C16.8695 21.015 16.477 21.4075 15.9945 21.4075Z" fill="#FFC107"/>
<path d="M15.9945 19.9075C16.3395 19.9075 16.6195 20.1874 16.6195 20.5324C16.6195 20.8774 16.3395 21.1574 15.9945 21.1574C15.6495 21.1574 15.3695 20.8774 15.3695 20.5324C15.3695 20.1874 15.6495 19.9075 15.9945 19.9075ZM15.9945 19.4075C15.3745 19.4075 14.8695 19.9125 14.8695 20.5324C14.8695 21.1524 15.3745 21.6574 15.9945 21.6574C16.6145 21.6574 17.1195 21.1524 17.1195 20.5324C17.1195 19.9125 16.6145 19.4075 15.9945 19.4075Z" fill="#C62828"/>
<path d="M25.2092 23.6574H20.2144C19.9844 23.6574 19.7969 23.4699 19.7969 23.24V22.4075C19.7969 22.1775 19.9844 21.99 20.2144 21.99H25.2117C25.4417 21.99 25.6292 22.1775 25.6292 22.4075V23.24C25.6267 23.4699 25.4392 23.6574 25.2092 23.6574Z" fill="#795548"/>
<path opacity="0.2" d="M25.2092 22.4075V23.24H20.2144V22.4075H25.2092ZM25.2092 21.99H20.2144C19.9844 21.99 19.7969 22.1775 19.7969 22.4075V23.24C19.7969 23.4699 19.9844 23.6574 20.2144 23.6574H25.2117C25.4417 23.6574 25.6292 23.4699 25.6292 23.24V22.4075C25.6267 22.1775 25.4392 21.99 25.2092 21.99Z" fill="#424242"/>
<path d="M29.6416 13.9127L18.1719 3.91805C17.7895 3.58306 17.222 3.58306 16.8395 3.91805L5.37233 13.9127C4.94234 14.2877 4.89234 14.9452 5.26233 15.3802C5.62982 15.8177 6.2773 15.8677 6.70729 15.4927L17.0995 6.43797C17.3345 6.23298 17.6845 6.23298 17.9194 6.43797L28.3116 15.4927C28.5041 15.6602 28.7416 15.7427 28.9766 15.7427C29.2641 15.7427 29.5516 15.6202 29.7541 15.3802C30.1216 14.9452 30.0716 14.2877 29.6416 13.9127Z" fill="url(#paint8_radial_23_311)"/>
<path opacity="0.2" d="M17.507 4.41795C17.552 4.41795 17.617 4.43045 17.682 4.48294L29.1516 14.4776C29.2716 14.5826 29.2866 14.7751 29.1816 14.8976C29.1116 14.9826 29.0241 14.9951 28.9766 14.9951C28.9316 14.9951 28.8666 14.9826 28.8041 14.9301L18.4094 5.8729C18.1594 5.65541 17.8394 5.53541 17.507 5.53541C17.1745 5.53541 16.8545 5.65541 16.6045 5.8729L6.2123 14.9276C6.1498 14.9826 6.08231 14.9926 6.03981 14.9926C5.99481 14.9926 5.90731 14.9801 5.83481 14.8951C5.73232 14.7726 5.74482 14.5801 5.86481 14.4751L17.3345 4.48044C17.3945 4.43045 17.462 4.41795 17.507 4.41795ZM17.507 3.66797C17.2695 3.66797 17.032 3.75047 16.8395 3.91796L5.37233 13.9127C4.94234 14.2876 4.89234 14.9451 5.26233 15.3801C5.46482 15.6201 5.75232 15.7426 6.03981 15.7426C6.2748 15.7426 6.51229 15.6601 6.70479 15.4926L17.097 6.43788C17.2145 6.33539 17.362 6.28539 17.507 6.28539C17.652 6.28539 17.7994 6.33539 17.9169 6.43788L28.3091 15.4926C28.5016 15.6601 28.7391 15.7426 28.9741 15.7426C29.2616 15.7426 29.5491 15.6201 29.7516 15.3801C30.1191 14.9426 30.0691 14.2876 29.6416 13.9127L18.1719 3.91796C17.9819 3.75297 17.7445 3.66797 17.507 3.66797Z" fill="#424242"/>
<path d="M19.1769 28.0123H8.34975V27.1373C8.34975 26.8373 8.59224 26.5948 8.89223 26.5948H18.6319C18.9319 26.5948 19.1744 26.8373 19.1744 27.1373V28.0123H19.1769Z" fill="url(#paint9_linear_23_311)"/>
<path opacity="0.3" d="M18.6344 26.8448C18.7969 26.8448 18.9269 26.9773 18.9269 27.1373V27.7623H8.59974V27.1373C8.59974 26.9748 8.73224 26.8448 8.89223 26.8448H18.6344ZM18.6344 26.5948H8.89473C8.59474 26.5948 8.35225 26.8373 8.35225 27.1373V28.0123H19.1794V27.1373C19.1769 26.8373 18.9344 26.5948 18.6344 26.5948Z" fill="#263238"/>
<path opacity="0.2" d="M17.6811 27.2323C17.781 27.196 17.8482 27.1287 17.8312 27.082C17.8142 27.0352 17.7194 27.0268 17.6195 27.0632C17.5196 27.0995 17.4524 27.1668 17.4694 27.2135C17.4864 27.2603 17.5811 27.2687 17.6811 27.2323Z" fill="#424242"/>
<path opacity="0.2" d="M13.3124 27.602C13.3832 27.5537 13.4203 27.485 13.3954 27.4485C13.3705 27.412 13.293 27.4216 13.2223 27.4698C13.1516 27.518 13.1144 27.5867 13.1393 27.6232C13.1642 27.6597 13.2417 27.6502 13.3124 27.602Z" fill="#424242"/>
<path opacity="0.08" d="M17.0645 27.5572C17.1956 27.5572 17.302 27.5102 17.302 27.4522C17.302 27.3942 17.1956 27.3472 17.0645 27.3472C16.9333 27.3472 16.827 27.3942 16.827 27.4522C16.827 27.5102 16.9333 27.5572 17.0645 27.5572Z" fill="#424242"/>
<path opacity="0.08" d="M15.0245 27.5448C15.1557 27.5448 15.262 27.4978 15.262 27.4398C15.262 27.3818 15.1557 27.3348 15.0245 27.3348C14.8934 27.3348 14.787 27.3818 14.787 27.4398C14.787 27.4978 14.8934 27.5448 15.0245 27.5448Z" fill="#424242"/>
<path opacity="0.08" d="M15.5145 27.2648C15.6043 27.2648 15.677 27.2245 15.677 27.1748C15.677 27.1251 15.6043 27.0848 15.5145 27.0848C15.4248 27.0848 15.352 27.1251 15.352 27.1748C15.352 27.2245 15.4248 27.2648 15.5145 27.2648Z" fill="#424242"/>
<path opacity="0.08" d="M12.8621 27.3373C12.9919 27.3373 13.0971 27.2802 13.0971 27.2098C13.0971 27.1394 12.9919 27.0823 12.8621 27.0823C12.7323 27.0823 12.6271 27.1394 12.6271 27.2098C12.6271 27.2802 12.7323 27.3373 12.8621 27.3373Z" fill="#424242"/>
<path opacity="0.08" d="M18.4794 27.2123C18.5692 27.2123 18.6419 27.1799 18.6419 27.1398C18.6419 27.0998 18.5692 27.0673 18.4794 27.0673C18.3897 27.0673 18.3169 27.0998 18.3169 27.1398C18.3169 27.1799 18.3897 27.2123 18.4794 27.2123Z" fill="#424242"/>
<path opacity="0.08" d="M14.0695 27.3097C14.0778 27.2454 13.9669 27.178 13.8218 27.1592C13.6766 27.1404 13.5522 27.1773 13.5439 27.2417C13.5355 27.306 13.6464 27.3734 13.7916 27.3922C13.9367 27.411 14.0611 27.3741 14.0695 27.3097Z" fill="#424242"/>
<path opacity="0.2" d="M18.3565 27.4794C18.3693 27.4157 18.2677 27.3417 18.1297 27.314C17.9916 27.2862 17.8693 27.3153 17.8565 27.3789C17.8438 27.4426 17.9453 27.5166 18.0834 27.5443C18.2215 27.5721 18.3438 27.543 18.3565 27.4794Z" fill="#424242"/>
<path opacity="0.2" d="M14.6046 27.2498C14.784 27.2498 14.9295 27.2017 14.9295 27.1423C14.9295 27.0829 14.784 27.0348 14.6046 27.0348C14.4251 27.0348 14.2796 27.0829 14.2796 27.1423C14.2796 27.2017 14.4251 27.2498 14.6046 27.2498Z" fill="#424242"/>
<path opacity="0.2" d="M16.7269 27.188C16.7488 27.1496 16.6918 27.0757 16.5995 27.023C16.5072 26.9702 16.4146 26.9585 16.3926 26.9969C16.3707 27.0352 16.4278 27.1091 16.5201 27.1619C16.6124 27.2146 16.705 27.2263 16.7269 27.188Z" fill="#424242"/>
<path opacity="0.2" d="M16.0152 27.5333C16.1866 27.4638 16.305 27.3566 16.2796 27.2939C16.2542 27.2312 16.0946 27.2368 15.9231 27.3063C15.7516 27.3758 15.6332 27.483 15.6587 27.5457C15.6841 27.6084 15.8437 27.6028 16.0152 27.5333Z" fill="#424242"/>
<path opacity="0.2" d="M11.538 27.3274C11.6379 27.2911 11.7051 27.2238 11.6881 27.1771C11.6711 27.1303 11.5764 27.1219 11.4765 27.1583C11.3765 27.1946 11.3093 27.2619 11.3263 27.3086C11.3433 27.3554 11.4381 27.3638 11.538 27.3274Z" fill="#424242"/>
<path opacity="0.08" d="M10.9222 27.6548C11.0533 27.6548 11.1597 27.6078 11.1597 27.5498C11.1597 27.4918 11.0533 27.4448 10.9222 27.4448C10.791 27.4448 10.6847 27.4918 10.6847 27.5498C10.6847 27.6078 10.791 27.6548 10.9222 27.6548Z" fill="#424242"/>
<path opacity="0.08" d="M9.3722 27.3623C9.46195 27.3623 9.5347 27.322 9.5347 27.2723C9.5347 27.2226 9.46195 27.1823 9.3722 27.1823C9.28246 27.1823 9.20971 27.2226 9.20971 27.2723C9.20971 27.322 9.28246 27.3623 9.3722 27.3623Z" fill="#424242"/>
<path opacity="0.2" d="M12.2148 27.5782C12.2276 27.5146 12.126 27.4405 11.988 27.4128C11.8499 27.385 11.7276 27.4141 11.7148 27.4778C11.7021 27.5414 11.8036 27.6154 11.9417 27.6432C12.0798 27.6709 12.2021 27.6418 12.2148 27.5782Z" fill="#424242"/>
<path opacity="0.2" d="M10.5828 27.2828C10.6047 27.2445 10.5477 27.1706 10.4554 27.1178C10.3631 27.0651 10.2705 27.0534 10.2485 27.0917C10.2266 27.1301 10.2837 27.204 10.376 27.2567C10.4683 27.3095 10.5609 27.3212 10.5828 27.2828Z" fill="#424242"/>
<path opacity="0.2" d="M9.87191 27.6288C10.0434 27.5593 10.1618 27.4521 10.1364 27.3894C10.1109 27.3267 9.95133 27.3322 9.77987 27.4017C9.6084 27.4712 9.49 27.5784 9.51542 27.6411C9.54084 27.7038 9.70044 27.6983 9.87191 27.6288Z" fill="#424242"/>
<path d="M21.0169 29.2798C20.8444 29.2798 20.7519 29.0973 20.7194 29.0198C20.6244 28.7898 20.6344 28.4523 20.8369 28.2498C20.9169 28.1698 20.9244 28.0348 20.8694 27.9373C20.7469 27.7198 20.6944 27.4473 20.7219 27.1698C20.8044 26.3249 21.4894 25.5999 22.3468 25.4449C22.4668 25.4224 22.5893 25.4124 22.7093 25.4124C22.8693 25.4124 23.0293 25.4324 23.1868 25.4699C23.2068 25.4749 23.2268 25.4774 23.2468 25.4774C23.3318 25.4774 23.4118 25.4349 23.4593 25.3599C23.8268 24.7674 24.4643 24.4124 25.1617 24.4124C26.0467 24.4124 26.8367 25.0049 27.0842 25.8524C27.1167 25.9599 27.2142 26.0324 27.3242 26.0324C27.3392 26.0324 27.3542 26.0299 27.3717 26.0274C27.4967 26.0049 27.6217 25.9924 27.7467 25.9924C27.9017 25.9924 28.0592 26.0124 28.2142 26.0499C29.0491 26.2524 29.6791 26.9898 29.7441 27.8398C29.7841 28.3723 29.6216 28.8798 29.2816 29.2823H21.0169V29.2798Z" fill="url(#paint10_radial_23_311)"/>
<path d="M25.1617 24.6623C25.9367 24.6623 26.6267 25.1798 26.8442 25.9223C26.9067 26.1398 27.1067 26.2823 27.3242 26.2823C27.3542 26.2823 27.3867 26.2798 27.4167 26.2723C27.5267 26.2523 27.6367 26.2398 27.7442 26.2398C27.8792 26.2398 28.0167 26.2573 28.1517 26.2898C28.8841 26.4673 29.4341 27.1123 29.4916 27.8547C29.5241 28.2822 29.4066 28.6922 29.1566 29.0297L21.0194 29.0322C20.9994 29.0222 20.9369 28.9522 20.9144 28.8147C20.8944 28.6947 20.9069 28.5297 21.0094 28.4272C21.1344 28.3047 21.2269 28.0697 21.0844 27.8147C20.9869 27.6397 20.9444 27.4198 20.9669 27.1948C21.0394 26.4598 21.6368 25.8273 22.3893 25.6898C22.4943 25.6698 22.6018 25.6623 22.7068 25.6623C22.8468 25.6623 22.9868 25.6798 23.1243 25.7123C23.1643 25.7223 23.2043 25.7273 23.2443 25.7273C23.4143 25.7273 23.5768 25.6398 23.6693 25.4923C23.9968 24.9723 24.5518 24.6623 25.1617 24.6623ZM25.1617 24.1624C24.3543 24.1624 23.6443 24.5873 23.2468 25.2273C23.0743 25.1848 22.8943 25.1623 22.7093 25.1623C22.5768 25.1623 22.4418 25.1748 22.3018 25.1998C21.3369 25.3748 20.5669 26.1723 20.4719 27.1473C20.4169 27.7197 20.6619 28.0722 20.6569 28.0772C20.1769 28.5572 20.4419 29.5347 21.0144 29.5347H29.3916C29.8041 29.0922 30.0416 28.4847 29.9916 27.8222C29.9191 26.8573 29.2116 26.0398 28.2716 25.8098C28.0917 25.7673 27.9167 25.7473 27.7467 25.7473C27.6017 25.7473 27.4617 25.7623 27.3242 25.7873C27.0517 24.8473 26.1867 24.1624 25.1617 24.1624Z" fill="#689F38"/>
<path d="M22.9468 26.6973C22.9468 26.6973 22.9268 26.0798 23.4218 25.4199" stroke="#0576DE" stroke-width="1.04542" stroke-miterlimit="10" stroke-linecap="round" stroke-linejoin="round"/>
<path d="M27.2867 26.0399C26.7042 26.0499 26.1342 26.5073 26.0467 27.0673" stroke="#0576DE" stroke-width="1.04542" stroke-miterlimit="10" stroke-linecap="round" stroke-linejoin="round"/>
<path d="M26.6892 27.3272C26.1767 27.0948 25.4867 27.1298 24.9567 27.3997" stroke="#0576DE" stroke-width="1.04542" stroke-miterlimit="10" stroke-linecap="round" stroke-linejoin="round"/>
<path d="M0 27.9998H29.9991V29.9998H0V27.9998Z" fill="#689F38"/>
<path opacity="0.2" d="M0 29.2497H29.9991V29.9997H0V29.2497Z" fill="#424242"/>
<defs>
<radialGradient id="paint0_radial_23_311" cx="0" cy="0" r="1" gradientUnits="userSpaceOnUse" gradientTransform="translate(5.18735 7.15666) scale(12.3539)">
<stop stop-color="#8BC34A"/>
<stop offset="0.7888" stop-color="#558B2F"/>
<stop offset="1" stop-color="#558B2F"/>
</radialGradient>
<radialGradient id="paint1_radial_23_311" cx="0" cy="0" r="1" gradientUnits="userSpaceOnUse" gradientTransform="translate(2.84571 23.6699) rotate(90) scale(5.09035 6.10536)">
<stop stop-color="#9CCC65"/>
<stop offset="0.3004" stop-color="#96C660"/>
<stop offset="0.3827" stop-color="#93C35E"/>
<stop offset="0.4872" stop-color="#86B854"/>
<stop offset="0.8182" stop-color="#639739"/>
<stop offset="0.9952" stop-color="#558B2F"/>
</radialGradient>
<radialGradient id="paint2_radial_23_311" cx="0" cy="0" r="1" gradientUnits="userSpaceOnUse" gradientTransform="translate(17.5067 4.57767) scale(26.7292 26.7292)">
<stop stop-color="#FFD54F"/>
<stop offset="0.179" stop-color="#FFD34B"/>
<stop offset="0.3526" stop-color="#FFCE3F"/>
<stop offset="0.524" stop-color="#FFC62C"/>
<stop offset="0.693" stop-color="#FFBA11"/>
<stop offset="0.7785" stop-color="#FFB300"/>
<stop offset="1" stop-color="#FFB300"/>
</radialGradient>
<radialGradient id="paint3_radial_23_311" cx="0" cy="0" r="1" gradientUnits="userSpaceOnUse" gradientTransform="translate(13.6288 15.2761) scale(10.9314)">
<stop stop-color="#D32F2F"/>
<stop offset="0.4374" stop-color="#CA2929"/>
<stop offset="0.9957" stop-color="#B71C1C"/>
</radialGradient>
<radialGradient id="paint4_radial_23_311" cx="0" cy="0" r="1" gradientUnits="userSpaceOnUse" gradientTransform="translate(13.7328 15.8486) scale(9.8127)">
<stop stop-color="#EF5350"/>
<stop offset="1" stop-color="#E53935"/>
</radialGradient>
<radialGradient id="paint5_radial_23_311" cx="0" cy="0" r="1" gradientUnits="userSpaceOnUse" gradientTransform="translate(13.6548 16.7336) scale(8.66449)">
<stop stop-color="#E53935"/>
<stop offset="0.4072" stop-color="#DC3431"/>
<stop offset="1" stop-color="#C62828"/>
</radialGradient>
<radialGradient id="paint6_radial_23_311" cx="0" cy="0" r="1" gradientUnits="userSpaceOnUse" gradientTransform="translate(13.6548 16.7336) scale(8.66449 8.66449)">
<stop stop-color="#E53935"/>
<stop offset="0.4072" stop-color="#DC3431"/>
<stop offset="1" stop-color="#C62828"/>
</radialGradient>
<linearGradient id="paint7_linear_23_311" x1="13.7638" y1="25.6699" x2="13.7638" y2="27.0298" gradientUnits="userSpaceOnUse">
<stop offset="0.0042918" stop-color="#BDBDBD"/>
<stop offset="0.2153" stop-color="#B5B5B5"/>
<stop offset="0.5502" stop-color="#9E9E9E"/>
<stop offset="0.9652" stop-color="#787878"/>
<stop offset="1" stop-color="#757575"/>
</linearGradient>
<radialGradient id="paint8_radial_23_311" cx="0" cy="0" r="1" gradientUnits="userSpaceOnUse" gradientTransform="translate(17.4025 3.61656) scale(14.0831)">
<stop stop-color="#F44336"/>
<stop offset="0.34" stop-color="#EE3F35"/>
<stop offset="0.8027" stop-color="#DC3531"/>
<stop offset="0.9957" stop-color="#D32F2F"/>
</radialGradient>
<linearGradient id="paint9_linear_23_311" x1="13.7638" y1="26.6398" x2="13.7638" y2="27.9898" gradientUnits="userSpaceOnUse">
<stop offset="0.0042918" stop-color="#BDBDBD"/>
<stop offset="0.3969" stop-color="#BABABA"/>
<stop offset="0.7025" stop-color="#B0B0B0"/>
<stop offset="0.9786" stop-color="#A0A0A0"/>
<stop offset="1" stop-color="#9E9E9E"/>
</linearGradient>
<radialGradient id="paint10_radial_23_311" cx="0" cy="0" r="1" gradientUnits="userSpaceOnUse" gradientTransform="translate(25.0294 24.6932) rotate(90) scale(6.23431 7.2424)">
<stop stop-color="#9CCC65"/>
<stop offset="0.2538" stop-color="#96C760"/>
<stop offset="0.5994" stop-color="#84B851"/>
<stop offset="0.9952" stop-color="#689F38"/>
</radialGradient>
</defs>
</svg>
