<svg width="34" height="33" viewBox="0 0 34 33" fill="none" xmlns="http://www.w3.org/2000/svg">
<g filter="url(#filter0_f_58_401)">
<path d="M17 16C17.6903 16 18.25 15.4404 18.25 14.75C18.25 14.0596 17.6903 13.5 17 13.5C16.3096 13.5 15.75 14.0596 15.75 14.75C15.75 15.4404 16.3096 16 17 16Z" fill="#231F20"/>
<path d="M22 16C22.6903 16 23.25 15.4404 23.25 14.75C23.25 14.0596 22.6903 13.5 22 13.5C21.3096 13.5 20.75 14.0596 20.75 14.75C20.75 15.4404 21.3096 16 22 16Z" fill="#231F20"/>
<path d="M12 16C12.6903 16 13.25 15.4404 13.25 14.75C13.25 14.0596 12.6903 13.5 12 13.5C11.3096 13.5 10.75 14.0596 10.75 14.75C10.75 15.4404 11.3096 16 12 16Z" fill="#231F20"/>
<path d="M25.75 4.75H8.25C7.25544 4.75 6.30161 5.14509 5.59835 5.84835C4.89509 6.55161 4.5 7.50544 4.5 8.5V27.25C4.50038 27.4715 4.55961 27.6889 4.67163 27.88C4.78364 28.0711 4.94442 28.229 5.1375 28.3375C5.32432 28.4434 5.53526 28.4993 5.75 28.5C5.97435 28.4999 6.19456 28.4395 6.3875 28.325L12 24.925C12.2075 24.8015 12.4462 24.7407 12.6875 24.75H25.75C26.7446 24.75 27.6984 24.3549 28.4017 23.6516C29.1049 22.9484 29.5 21.9946 29.5 21V8.5C29.5 7.50544 29.1049 6.55161 28.4017 5.84835C27.6984 5.14509 26.7446 4.75 25.75 4.75ZM27 21C27 21.3315 26.8683 21.6495 26.6339 21.8839C26.3995 22.1183 26.0815 22.25 25.75 22.25H12.6875C12.0048 22.2495 11.3349 22.4353 10.75 22.7875L7 25.0375V8.5C7 8.16848 7.1317 7.85054 7.36612 7.61612C7.60054 7.3817 7.91848 7.25 8.25 7.25H25.75C26.0815 7.25 26.3995 7.3817 26.6339 7.61612C26.8683 7.85054 27 8.16848 27 8.5V21Z" fill="#231F20"/>
</g>
<defs>
<filter id="filter0_f_58_401" x="0.5" y="0.75" width="33" height="31.75" filterUnits="userSpaceOnUse" color-interpolation-filters="sRGB">
<feFlood flood-opacity="0" result="BackgroundImageFix"/>
<feBlend mode="normal" in="SourceGraphic" in2="BackgroundImageFix" result="shape"/>
<feGaussianBlur stdDeviation="2" result="effect1_foregroundBlur_58_401"/>
</filter>
</defs>
</svg>
