<svg width="34" height="36" viewBox="0 0 34 36" fill="none" xmlns="http://www.w3.org/2000/svg">
<path d="M32 16.9121L17.8167 31.0954C16.0792 32.8331 13.7225 33.8093 11.2652 33.8093C8.80793 33.8093 6.45128 32.8331 4.71372 31.0954C2.97615 29.3579 2 27.0013 2 24.5439C2 22.0866 2.97615 19.7301 4.71372 17.9924L18.897 3.80914C20.0554 2.65077 21.6266 2 23.2647 2C24.9029 2 26.4741 2.65077 27.6323 3.80914C28.7908 4.96753 29.4416 6.53862 29.4416 8.17681C29.4416 9.81501 28.7908 11.3861 27.6323 12.5445L13.4336 26.7278C12.8544 27.307 12.0689 27.6323 11.2498 27.6323C10.4307 27.6323 9.64514 27.307 9.06596 26.7278C8.48677 26.1486 8.16137 25.3632 8.16137 24.5439C8.16137 23.7249 8.48677 22.9393 9.06596 22.3601L22.1689 9.27258" stroke="#9E9E9E" stroke-width="3.68217" stroke-linecap="round" stroke-linejoin="round"/>
</svg>
