<svg width="52" height="52" viewBox="0 0 52 52" fill="none" xmlns="http://www.w3.org/2000/svg">
<path d="M25.9438 8.64795C25.3705 8.64795 24.8205 8.87573 24.4151 9.28118C24.0096 9.68663 23.7819 10.2365 23.7819 10.8099V43.2398C23.7819 43.8132 24.0096 44.3631 24.4151 44.7685C24.8205 45.174 25.3705 45.4018 25.9438 45.4018C26.5172 45.4018 27.0672 45.174 27.4726 44.7685C27.8781 44.3631 28.1058 43.8132 28.1058 43.2398V10.8099C28.1058 10.2365 27.8781 9.68663 27.4726 9.28118C27.0672 8.87573 26.5172 8.64795 25.9438 8.64795Z" fill="#231F20"/>
<path d="M41.0778 25.9438C40.5044 25.9438 39.9545 26.1716 39.549 26.5771C39.1436 26.9825 38.9158 27.5324 38.9158 28.1058V43.2398C38.9158 43.8131 39.1436 44.3631 39.549 44.7685C39.9545 45.174 40.5044 45.4017 41.0778 45.4017C41.6512 45.4017 42.2011 45.174 42.6065 44.7685C43.012 44.3631 43.2398 43.8131 43.2398 43.2398V28.1058C43.2398 27.5324 43.012 26.9825 42.6065 26.5771C42.2011 26.1716 41.6512 25.9438 41.0778 25.9438Z" fill="#231F20"/>
<path d="M10.8099 17.2959C10.2365 17.2959 9.68663 17.5237 9.28118 17.9291C8.87573 18.3346 8.64795 18.8845 8.64795 19.4579V43.2398C8.64795 43.8132 8.87573 44.3631 9.28118 44.7685C9.68663 45.174 10.2365 45.4017 10.8099 45.4017C11.3833 45.4017 11.9332 45.174 12.3387 44.7685C12.7441 44.3631 12.9719 43.8132 12.9719 43.2398V19.4579C12.9719 18.8845 12.7441 18.3346 12.3387 17.9291C11.9332 17.5237 11.3833 17.2959 10.8099 17.2959Z" fill="#231F20"/>
</svg>
