<svg width="30" height="9" viewBox="0 0 30 9" fill="none" xmlns="http://www.w3.org/2000/svg">
<path d="M19.3548 4.35484C19.3548 6.7621 17.4073 8.70968 15 8.70968C12.5927 8.70968 10.6452 6.7621 10.6452 4.35484C10.6452 1.94758 12.5927 0 15 0C17.4073 0 19.3548 1.94758 19.3548 4.35484ZM25.6452 0C23.2379 0 21.2903 1.94758 21.2903 4.35484C21.2903 6.7621 23.2379 8.70968 25.6452 8.70968C28.0524 8.70968 30 6.7621 30 4.35484C30 1.94758 28.0524 0 25.6452 0ZM4.35484 0C1.94758 0 0 1.94758 0 4.35484C0 6.7621 1.94758 8.70968 4.35484 8.70968C6.7621 8.70968 8.70968 6.7621 8.70968 4.35484C8.70968 1.94758 6.7621 0 4.35484 0Z" fill="black"/>
</svg>
