<svg width="40" height="40" viewBox="0 0 40 40" fill="none" xmlns="http://www.w3.org/2000/svg">
<g filter="url(#filter0_d_23_221)">
<path fill-rule="evenodd" clip-rule="evenodd" d="M7.6625 14.05C7.7625 13.425 7.9125 12.8 8.1 12.2C7.9 12.8 7.75 13.4125 7.6625 14.05ZM5 16V17.25H5.05C5.0125 16.8375 5 16.425 5 16Z" fill="white" stroke="black"/>
<path fill-rule="evenodd" clip-rule="evenodd" d="M20 1C12.1375 1 5.6875 7.05 5.05 14.75H5V16C5 16.425 5.0125 16.8375 5.05 17.25C5.6875 24.95 12.1375 31 20 31C28.2875 31 35 24.2875 35 16C35 7.7125 28.2875 1 20 1ZM7.6375 14.1625C7.65 14.125 7.65 14.0875 7.6625 14.05C7.75 13.4125 7.9 12.8 8.1 12.2C8.2875 11.5875 8.525 10.9875 8.825 10.425C8.95 10.15 9.1 9.875 9.2625 9.6125C9.4 9.3875 9.5375 9.1625 9.6875 8.9375C9.775 8.8 9.875 8.6625 9.9875 8.525C10.1 8.3625 10.225 8.2 10.35 8.0375C11.7125 6.425 13.45 5.15 15.425 4.375C12.4125 6.8375 10.4125 10.6125 10.0625 14.75H7.5625C7.5875 14.55 7.6 14.35 7.6375 14.1625ZM8.4 20.6875C8.3 20.4625 8.225 20.2375 8.15 20C8.0625 19.775 8 19.5375 7.9375 19.3C7.8625 19.05 7.7625 18.775 7.725 18.5125C7.6375 18.1 7.5 17.6875 7.5 17.275V17.25H10.05C10.3625 21.3875 12.3625 25.1 15.35 27.6C13.79 26.9679 12.3718 26.031 11.1785 24.8441C9.98508 23.6571 9.04049 22.244 8.4 20.6875ZM18.675 26.725C16.9855 25.7357 15.5528 24.3624 14.493 22.7163C13.4333 21.0701 12.7762 19.1974 12.575 17.25H18.7375L18.675 26.725ZM18.75 14.75H12.5625C12.95 10.6 15.3625 7 18.8125 5.025L18.75 14.75ZM30.325 8.95C30.5125 9.2 30.675 9.45 30.8125 9.7125C30.9625 9.9625 31.1 10.2125 31.225 10.475C31.3125 10.675 31.4 10.8625 31.4875 11.0625C31.575 11.275 31.6625 11.4875 31.7375 11.7C31.8125 11.8875 31.875 12.0875 31.9375 12.2875C32.025 12.5625 32.1 12.825 32.1625 13.1C32.2125 13.3125 32.2625 13.5375 32.3 13.7625C32.3375 13.9875 32.375 14.225 32.4 14.45C32.4125 14.55 32.425 14.65 32.425 14.75H29.9375C29.6 10.5375 27.5125 6.8 24.4 4.3C26.8125 5.2 28.875 6.85 30.325 8.95ZM21.3125 5.1C24.6875 7.0875 27.0625 10.65 27.4375 14.75H21.25L21.3125 5.1ZM21.175 26.8375L21.2375 17.25H27.425C27 21.35 24.5875 24.9 21.175 26.8375ZM32.4 17.55C32.375 17.775 32.3375 18.0125 32.3 18.2375C32.2625 18.4625 32.2125 18.6875 32.1625 18.9C32.1 19.175 32.025 19.4375 31.9375 19.7125C31.875 19.9125 31.8125 20.1125 31.7375 20.3C31.6625 20.5125 31.575 20.725 31.4875 20.9375C31.4 21.1375 31.3125 21.325 31.225 21.525C29.8125 24.35 27.375 26.5875 24.4 27.7C27.5125 25.2 29.6 21.4625 29.9375 17.25H32.425C32.425 17.35 32.4125 17.45 32.4 17.55Z" fill="white" stroke="black"/>
<path fill-rule="evenodd" clip-rule="evenodd" d="M5.05 17.25H5V16C5 16.425 5.0125 16.8375 5.05 17.25Z" fill="white" stroke="black"/>
</g>
<defs>
<filter id="filter0_d_23_221" x="0.5" y="0.5" width="39" height="39" filterUnits="userSpaceOnUse" color-interpolation-filters="sRGB">
<feFlood flood-opacity="0" result="BackgroundImageFix"/>
<feColorMatrix in="SourceAlpha" type="matrix" values="0 0 0 0 0 0 0 0 0 0 0 0 0 0 0 0 0 0 127 0" result="hardAlpha"/>
<feOffset dy="4"/>
<feGaussianBlur stdDeviation="2"/>
<feComposite in2="hardAlpha" operator="out"/>
<feColorMatrix type="matrix" values="0 0 0 0 0 0 0 0 0 0 0 0 0 0 0 0 0 0 0.25 0"/>
<feBlend mode="normal" in2="BackgroundImageFix" result="effect1_dropShadow_23_221"/>
<feBlend mode="normal" in="SourceGraphic" in2="effect1_dropShadow_23_221" result="shape"/>
</filter>
</defs>
</svg>
