<svg width="34" height="36" viewBox="0 0 34 36" fill="none" xmlns="http://www.w3.org/2000/svg">
<g filter="url(#filter0_f_58_385)">
<path d="M17.5 15.25C18.1903 15.25 18.75 14.6904 18.75 14C18.75 13.3096 18.1903 12.75 17.5 12.75C16.8096 12.75 16.25 13.3096 16.25 14C16.25 14.6904 16.8096 15.25 17.5 15.25Z" fill="white"/>
<path d="M22.5 15.25C23.1904 15.25 23.75 14.6904 23.75 14C23.75 13.3096 23.1904 12.75 22.5 12.75C21.8096 12.75 21.25 13.3096 21.25 14C21.25 14.6904 21.8096 15.25 22.5 15.25Z" fill="white"/>
<path d="M12.5 15.25C13.1903 15.25 13.75 14.6904 13.75 14C13.75 13.3096 13.1903 12.75 12.5 12.75C11.8096 12.75 11.25 13.3096 11.25 14C11.25 14.6904 11.8096 15.25 12.5 15.25Z" fill="white"/>
<path d="M26.25 4H8.75C7.75544 4 6.80161 4.39509 6.09835 5.09835C5.39509 5.80161 5 6.75544 5 7.75V26.5C5.00038 26.7215 5.05961 26.9389 5.17163 27.13C5.28364 27.3211 5.44442 27.479 5.6375 27.5875C5.82432 27.6934 6.03526 27.7493 6.25 27.75C6.47435 27.7499 6.69456 27.6895 6.8875 27.575L12.5 24.175C12.7075 24.0515 12.9462 23.9907 13.1875 24H26.25C27.2446 24 28.1984 23.6049 28.9017 22.9016C29.6049 22.1984 30 21.2446 30 20.25V7.75C30 6.75544 29.6049 5.80161 28.9017 5.09835C28.1984 4.39509 27.2446 4 26.25 4ZM27.5 20.25C27.5 20.5815 27.3683 20.8995 27.1339 21.1339C26.8995 21.3683 26.5815 21.5 26.25 21.5H13.1875C12.5048 21.4995 11.8349 21.6853 11.25 22.0375L7.5 24.2875V7.75C7.5 7.41848 7.6317 7.10054 7.86612 6.86612C8.10054 6.6317 8.41848 6.5 8.75 6.5H26.25C26.5815 6.5 26.8995 6.6317 27.1339 6.86612C27.3683 7.10054 27.5 7.41848 27.5 7.75V20.25Z" fill="white"/>
</g>
<defs>
<filter id="filter0_f_58_385" x="1" y="0" width="33" height="31.75" filterUnits="userSpaceOnUse" color-interpolation-filters="sRGB">
<feFlood flood-opacity="0" result="BackgroundImageFix"/>
<feBlend mode="normal" in="SourceGraphic" in2="BackgroundImageFix" result="shape"/>
<feGaussianBlur stdDeviation="2" result="effect1_foregroundBlur_58_385"/>
</filter>
</defs>
</svg>
