<svg width="30" height="32" viewBox="0 0 30 32" fill="none" xmlns="http://www.w3.org/2000/svg">
<path d="M17.5 11.2501C18.1904 11.2501 18.75 10.6904 18.75 10.0001C18.75 9.30971 18.1904 8.75006 17.5 8.75006C16.8096 8.75006 16.25 9.30971 16.25 10.0001C16.25 10.6904 16.8096 11.2501 17.5 11.2501Z" fill="white"/>
<path d="M22.5 11.2501C23.1904 11.2501 23.75 10.6904 23.75 10.0001C23.75 9.30971 23.1904 8.75006 22.5 8.75006C21.8096 8.75006 21.25 9.30971 21.25 10.0001C21.25 10.6904 21.8096 11.2501 22.5 11.2501Z" fill="white"/>
<path d="M12.5 11.2501C13.1904 11.2501 13.75 10.6904 13.75 10.0001C13.75 9.30971 13.1904 8.75006 12.5 8.75006C11.8096 8.75006 11.25 9.30971 11.25 10.0001C11.25 10.6904 11.8096 11.2501 12.5 11.2501Z" fill="white"/>
<path d="M26.25 0H8.75C7.75544 0 6.80161 0.395088 6.09835 1.09835C5.39509 1.80161 5 2.75544 5 3.75V22.5C5.00038 22.7215 5.05961 22.9389 5.17163 23.13C5.28364 23.3211 5.44442 23.479 5.6375 23.5875C5.82432 23.6934 6.03526 23.7493 6.25 23.75C6.47435 23.7499 6.69456 23.6895 6.8875 23.575L12.5 20.175C12.7075 20.0515 12.9462 19.9907 13.1875 20H26.25C27.2446 20 28.1984 19.6049 28.9017 18.9016C29.6049 18.1984 30 17.2446 30 16.25V3.75C30 2.75544 29.6049 1.80161 28.9017 1.09835C28.1984 0.395088 27.2446 0 26.25 0ZM27.5 16.25C27.5 16.5815 27.3683 16.8995 27.1339 17.1339C26.8995 17.3683 26.5815 17.5 26.25 17.5H13.1875C12.5048 17.4995 11.8349 17.6853 11.25 18.0375L7.5 20.2875V3.75C7.5 3.41848 7.6317 3.10054 7.86612 2.86612C8.10054 2.6317 8.41848 2.5 8.75 2.5H26.25C26.5815 2.5 26.8995 2.6317 27.1339 2.86612C27.3683 3.10054 27.5 3.41848 27.5 3.75V16.25Z" fill="white"/>
</svg>
