<svg width="25" height="25" viewBox="0 0 25 25" fill="none" xmlns="http://www.w3.org/2000/svg">
<path d="M15.7257 17.4845L17.4922 15.718L25 23.2257L23.2335 24.9923L15.7257 17.4845Z" fill="#616161"/>
<path d="M9.99453 19.9891C15.5144 19.9891 19.9891 15.5144 19.9891 9.99453C19.9891 4.4747 15.5144 0 9.99453 0C4.4747 0 0 4.4747 0 9.99453C0 15.5144 4.4747 19.9891 9.99453 19.9891Z" fill="#616161"/>
<path d="M17.771 19.5769L19.5375 17.8104L24.9696 23.2425L23.203 25.009L17.771 19.5769Z" fill="#37474F"/>
<path d="M9.99453 18.1151C14.4794 18.1151 18.1151 14.4794 18.1151 9.99458C18.1151 5.50972 14.4794 1.87402 9.99453 1.87402C5.50967 1.87402 1.87397 5.50972 1.87397 9.99458C1.87397 14.4794 5.50967 18.1151 9.99453 18.1151Z" fill="#64B5F6"/>
<path d="M14.3047 6.37146C13.2428 5.12215 11.6811 4.37256 9.99453 4.37256C8.30796 4.37256 6.74631 5.12215 5.68439 6.37146C5.43453 6.62133 5.49699 7.05859 5.74686 7.24599C5.99672 7.49585 6.43398 7.43338 6.62138 7.18352C7.4959 6.18407 8.68275 5.62187 9.99453 5.62187C11.3063 5.62187 12.4932 6.18407 13.3677 7.18352C13.4926 7.30845 13.68 7.43338 13.8674 7.43338C13.9923 7.43338 14.1797 7.37092 14.2422 7.30845C14.4921 7.05859 14.4921 6.62133 14.3047 6.37146Z" fill="#BBDEFB"/>
</svg>
