<svg width="33" height="28" viewBox="0 0 33 28" fill="none" xmlns="http://www.w3.org/2000/svg">
<g filter="url(#filter0_f_58_412)">
<path d="M28.7653 22.3979L5.40659 4.13711C5.34252 4.08581 5.26898 4.04763 5.19015 4.02476C5.11133 4.00189 5.02878 3.99476 4.9472 4.0038C4.86563 4.01283 4.78663 4.03784 4.71472 4.0774C4.64281 4.11696 4.5794 4.1703 4.5281 4.23437L4.13749 4.72224C4.08607 4.78633 4.0478 4.85993 4.02486 4.93883C4.00191 5.01773 3.99476 5.10038 4.00379 5.18205C4.01282 5.26372 4.03787 5.3428 4.0775 5.41478C4.11713 5.48675 4.17057 5.55021 4.23475 5.60151L27.5934 23.8623C27.6575 23.9136 27.731 23.9518 27.8098 23.9746C27.8887 23.9975 27.9712 24.0046 28.0528 23.9956C28.1344 23.9866 28.2134 23.9615 28.2853 23.922C28.3572 23.8824 28.4206 23.8291 28.4719 23.765L28.8625 23.2771C28.9139 23.2131 28.9522 23.1395 28.9751 23.0606C28.9981 22.9817 29.0052 22.899 28.9962 22.8173C28.9872 22.7357 28.9621 22.6566 28.9225 22.5846C28.8829 22.5126 28.8294 22.4492 28.7653 22.3979ZM15.5934 9.72131L20.8585 13.8376C20.7717 11.4963 18.8624 9.62483 16.5 9.62483C16.1953 9.6254 15.8914 9.65773 15.5934 9.72131ZM17.4066 18.2785L12.1415 14.1622C12.2286 16.5031 14.138 18.3746 16.5 18.3746C16.8047 18.3739 17.1085 18.3417 17.4066 18.2785ZM16.5 8.37487C20.3534 8.37487 23.8861 10.5232 25.7939 13.9997C25.3262 14.8553 24.7484 15.6459 24.0752 16.3512L25.5493 17.5035C26.3701 16.6255 27.0655 15.6382 27.6157 14.5696C27.705 14.3928 27.7516 14.1976 27.7516 13.9995C27.7516 13.8014 27.705 13.6062 27.6157 13.4294C25.4954 9.29632 21.3018 6.49992 16.5 6.49992C15.0665 6.49992 13.6989 6.77335 12.413 7.23467L14.2259 8.6522C14.9657 8.48424 15.7235 8.37487 16.5 8.37487ZM16.5 19.6245C12.6466 19.6245 9.11429 17.4761 7.20614 13.9997C7.6744 13.1441 8.25289 12.3537 8.92679 11.6486L7.45262 10.4963C6.632 11.3742 5.93676 12.3614 5.38667 13.4298C5.29731 13.6065 5.25076 13.8018 5.25076 13.9999C5.25076 14.1979 5.29731 14.3932 5.38667 14.57C7.50496 18.7031 11.6986 21.4995 16.5 21.4995C17.9335 21.4995 19.3011 21.2241 20.587 20.7647L18.7741 19.3476C18.0343 19.5152 17.2769 19.6245 16.5 19.6245Z" fill="#5E5C5C"/>
</g>
<defs>
<filter id="filter0_f_58_412" x="0" y="0" width="33" height="27.9994" filterUnits="userSpaceOnUse" color-interpolation-filters="sRGB">
<feFlood flood-opacity="0" result="BackgroundImageFix"/>
<feBlend mode="normal" in="SourceGraphic" in2="BackgroundImageFix" result="shape"/>
<feGaussianBlur stdDeviation="2" result="effect1_foregroundBlur_58_412"/>
</filter>
</defs>
</svg>
