<svg width="15" height="15" viewBox="0 0 15 15" fill="none" xmlns="http://www.w3.org/2000/svg">
<path d="M13.9638 4.83364L12.869 3.73876C12.6091 3.47887 12.1888 3.47887 11.9317 3.73876L5.30988 10.3606L2.22985 7.27776C1.96995 7.01787 1.5497 7.01787 1.29256 7.27776L0.194922 8.37541C-0.0649738 8.6353 -0.0649738 9.05556 0.194922 9.31545L4.83986 13.9632C5.09976 14.2231 5.52001 14.2231 5.77714 13.9632L13.9611 5.77369C14.221 5.51103 14.221 5.09077 13.9638 4.83364ZM4.99746 7.76437C5.16888 7.93856 5.45089 7.93856 5.62231 7.76437L11.3732 2.00797C11.5446 1.83378 11.5446 1.55453 11.3732 1.38311L10.1235 0.130639C9.95206 -0.0435463 9.67004 -0.0435463 9.49862 0.130639L5.30988 4.31938L3.77816 2.78489C3.60674 2.6107 3.32473 2.6107 3.15331 2.78489L1.90083 4.03736C1.72941 4.21155 1.72941 4.4908 1.90083 4.66222L4.99746 7.76437Z" fill="#0576DE"/>
</svg>
