<svg width="52" height="34" viewBox="0 0 52 34" fill="none" xmlns="http://www.w3.org/2000/svg">
<path d="M25.9438 5.64795C25.3705 5.64795 24.8205 5.79671 24.4151 6.06151C24.0096 6.32631 23.7819 6.68545 23.7819 7.05994V28.2398C23.7819 28.6142 24.0096 28.9734 24.4151 29.2382C24.8205 29.503 25.3705 29.6517 25.9438 29.6517C26.5172 29.6517 27.0672 29.503 27.4726 29.2382C27.8781 28.9734 28.1058 28.6142 28.1058 28.2398V7.05994C28.1058 6.68545 27.8781 6.32631 27.4726 6.06151C27.0672 5.79671 26.5172 5.64795 25.9438 5.64795Z" fill="#231F20"/>
<path d="M41.0778 16.9438C40.5044 16.9438 39.9545 17.0926 39.549 17.3574C39.1436 17.6222 38.9158 17.9814 38.9158 18.3558V28.2398C38.9158 28.6142 39.1436 28.9734 39.549 29.2382C39.9545 29.503 40.5044 29.6517 41.0778 29.6517C41.6512 29.6517 42.2011 29.503 42.6065 29.2382C43.012 28.9734 43.2398 28.6142 43.2398 28.2398V18.3558C43.2398 17.9814 43.012 17.6222 42.6065 17.3574C42.2011 17.0926 41.6512 16.9438 41.0778 16.9438Z" fill="#231F20"/>
<path d="M10.8099 11.2959C10.2365 11.2959 9.68663 11.4447 9.28118 11.7095C8.87573 11.9743 8.64795 12.3334 8.64795 12.7079V28.2398C8.64795 28.6142 8.87573 28.9734 9.28118 29.2382C9.68663 29.503 10.2365 29.6517 10.8099 29.6517C11.3833 29.6517 11.9332 29.503 12.3387 29.2382C12.7441 28.9734 12.9719 28.6142 12.9719 28.2398V12.7079C12.9719 12.3334 12.7441 11.9743 12.3387 11.7095C11.9332 11.4447 11.3833 11.2959 10.8099 11.2959Z" fill="#231F20"/>
</svg>
