<svg width="25" height="20" viewBox="0 0 25 20" fill="none" xmlns="http://www.w3.org/2000/svg">
<path d="M24.7653 18.3979L1.40659 0.137105C1.34252 0.0858093 1.26898 0.0476349 1.19015 0.0247615C1.11133 0.00188821 1.02878 -0.00523599 0.947201 0.00379568C0.865625 0.0128274 0.786628 0.037838 0.714718 0.0773997C0.642809 0.116961 0.579396 0.170299 0.5281 0.234368L0.137487 0.722244C0.0860705 0.786334 0.0477965 0.859935 0.0248551 0.938833C0.00191367 1.01773 -0.0052449 1.10038 0.003789 1.18205C0.0128229 1.26372 0.037872 1.3428 0.0775029 1.41478C0.117134 1.48675 0.170569 1.55021 0.23475 1.60151L23.5934 19.8623C23.6575 19.9136 23.731 19.9518 23.8098 19.9746C23.8887 19.9975 23.9712 20.0046 24.0528 19.9956C24.1344 19.9866 24.2134 19.9615 24.2853 19.922C24.3572 19.8824 24.4206 19.8291 24.4719 19.765L24.8625 19.2771C24.9139 19.2131 24.9522 19.1395 24.9751 19.0606C24.9981 18.9817 25.0052 18.899 24.9962 18.8173C24.9872 18.7357 24.9621 18.6566 24.9225 18.5846C24.8829 18.5126 24.8294 18.4492 24.7653 18.3979ZM11.5934 5.72131L16.8585 9.83759C16.7717 7.49626 14.8624 5.62483 12.5 5.62483C12.1953 5.6254 11.8914 5.65773 11.5934 5.72131ZM13.4066 14.2785L8.14154 10.1622C8.22865 12.5031 10.138 14.3746 12.5 14.3746C12.8047 14.3739 13.1085 14.3417 13.4066 14.2785ZM12.5 4.37487C16.3534 4.37487 19.8861 6.52324 21.7939 9.99969C21.3262 10.8553 20.7484 11.6459 20.0752 12.3512L21.5493 13.5035C22.3701 12.6255 23.0655 11.6382 23.6157 10.5696C23.705 10.3928 23.7516 10.1976 23.7516 9.9995C23.7516 9.80144 23.705 9.60615 23.6157 9.4294C21.4954 5.29632 17.3018 2.49992 12.5 2.49992C11.0665 2.49992 9.69891 2.77335 8.41302 3.23467L10.2259 4.6522C10.9657 4.48424 11.7235 4.37487 12.5 4.37487ZM12.5 15.6245C8.6466 15.6245 5.11429 13.4761 3.20614 9.99969C3.6744 9.14412 4.25289 8.35367 4.92679 7.64859L3.45262 6.49629C2.632 7.37418 1.93676 8.36137 1.38667 9.42979C1.29731 9.60655 1.25076 9.80183 1.25076 9.99989C1.25076 10.1979 1.29731 10.3932 1.38667 10.57C3.50496 14.7031 7.69858 17.4995 12.5 17.4995C13.9335 17.4995 15.3011 17.2241 16.587 16.7647L14.7741 15.3476C14.0343 15.5152 13.2769 15.6245 12.5 15.6245Z" fill="#5E5C5C"/>
</svg>
