<svg width="78" height="74" viewBox="0 0 78 74" fill="none" xmlns="http://www.w3.org/2000/svg">
<path d="M39 0C17.4556 0 0 16.5605 0 37C0 57.4395 17.4556 74 39 74C60.5444 74 78 57.4395 78 37C78 16.5605 60.5444 0 39 0ZM39 14.3226C46.6427 14.3226 52.8387 20.2008 52.8387 27.4516C52.8387 34.7024 46.6427 40.5806 39 40.5806C31.3573 40.5806 25.1613 34.7024 25.1613 27.4516C25.1613 20.2008 31.3573 14.3226 39 14.3226ZM39 65.6452C29.769 65.6452 21.4972 61.6766 15.9617 55.4702C18.9181 50.1887 24.7052 46.5484 31.4516 46.5484C31.829 46.5484 32.2065 46.6081 32.5681 46.7125C34.6125 47.3391 36.7512 47.7419 39 47.7419C41.2488 47.7419 43.4032 47.3391 45.4319 46.7125C45.7935 46.6081 46.171 46.5484 46.5484 46.5484C53.2948 46.5484 59.0819 50.1887 62.0383 55.4702C56.5028 61.6766 48.231 65.6452 39 65.6452Z" fill="black"/>
</svg>
