<svg width="52" height="67" viewBox="0 0 52 67" fill="none" xmlns="http://www.w3.org/2000/svg">
<path d="M25.9438 11.1666C25.3705 11.1666 24.8205 11.4607 24.4151 11.9843C24.0096 12.5078 23.7819 13.2179 23.7819 13.9583V55.8333C23.7819 56.5737 24.0096 57.2838 24.4151 57.8073C24.8205 58.3308 25.3705 58.625 25.9438 58.625C26.5172 58.625 27.0672 58.3308 27.4726 57.8073C27.8781 57.2838 28.1058 56.5737 28.1058 55.8333V13.9583C28.1058 13.2179 27.8781 12.5078 27.4726 11.9843C27.0672 11.4607 26.5172 11.1666 25.9438 11.1666Z" fill="#231F20"/>
<path d="M41.0778 33.5C40.5044 33.5 39.9545 33.7941 39.549 34.3177C39.1436 34.8412 38.9158 35.5513 38.9158 36.2917V55.8333C38.9158 56.5737 39.1436 57.2838 39.549 57.8073C39.9545 58.3309 40.5044 58.625 41.0778 58.625C41.6512 58.625 42.2011 58.3309 42.6065 57.8073C43.012 57.2838 43.2398 56.5737 43.2398 55.8333V36.2917C43.2398 35.5513 43.012 34.8412 42.6065 34.3177C42.2011 33.7941 41.6512 33.5 41.0778 33.5Z" fill="#231F20"/>
<path d="M10.8099 22.3334C10.2365 22.3334 9.68663 22.6275 9.28118 23.151C8.87573 23.6746 8.64795 24.3846 8.64795 25.125V55.8334C8.64795 56.5738 8.87573 57.2838 9.28118 57.8074C9.68663 58.3309 10.2365 58.625 10.8099 58.625C11.3833 58.625 11.9332 58.3309 12.3387 57.8074C12.7441 57.2838 12.9719 56.5738 12.9719 55.8334V25.125C12.9719 24.3846 12.7441 23.6746 12.3387 23.151C11.9332 22.6275 11.3833 22.3334 10.8099 22.3334Z" fill="#231F20"/>
</svg>
