<svg width="30" height="29" viewBox="0 0 30 29" fill="none" xmlns="http://www.w3.org/2000/svg">
<path d="M20.0084 22.8456V24.2827H19.9994H0V22.8456H19.9994H20.0084Z" fill="#CCD1D9"/>
<path d="M19.9994 25.7108L0 25.7208V24.2827H19.9994H20.0084V25.7108H19.9994Z" fill="#CCD1D9"/>
<path d="M0 23.322H20.0084V23.7981H0V23.322Z" fill="#E6E9ED"/>
<path d="M0 24.2827H20.0084V24.7588H0V24.2827Z" fill="#E6E9ED"/>
<path d="M0 25.2439H20.0084V25.7199H0V25.2439Z" fill="#E6E9ED"/>
<path d="M22.8499 2.85625V5.71249H0V2.85625C0 2.32737 0.428435 1.90417 0.952079 1.90417H2.85624V3.09427C2.85624 3.48939 3.17518 3.80833 3.5703 3.80833C3.96541 3.80833 4.28435 3.48939 4.28435 3.09427V1.90417H8.09267V3.09427C8.09267 3.48939 8.41162 3.80833 8.80673 3.80833C9.20184 3.80833 9.52079 3.48939 9.52079 3.09427V1.90417H13.3291V3.09427C13.3291 3.48939 13.648 3.80833 14.0432 3.80833C14.4383 3.80833 14.7572 3.48939 14.7572 3.09427V1.90417H18.5655V3.09427C18.5655 3.48939 18.8845 3.80833 19.2796 3.80833C19.6747 3.80833 19.9937 3.48939 19.9937 3.09427V1.90417H21.8978C22.4262 1.90417 22.8499 2.32737 22.8499 2.85625Z" fill="#ED5565"/>
<path d="M1.90414 19.0415H3.8083V20.9457H1.90414V19.0415Z" fill="white"/>
<path d="M10.4729 19.0415H12.377V20.9457H10.4729V19.0415Z" fill="white"/>
<path d="M14.7668 19.0415H16.6186C16.3853 19.6366 16.242 20.2792 16.1944 20.9457H14.7663L14.7668 19.0415Z" fill="white"/>
<path d="M10.4729 15.2334H12.377V17.1376H10.4729V15.2334Z" fill="white"/>
<path d="M6.18854 19.0415H8.0927V20.9457H6.18854V19.0415Z" fill="white"/>
<path d="M1.90414 11.4249H3.8083V13.3291H1.90414V11.4249Z" fill="white"/>
<path d="M1.90414 15.2334H3.8083V17.1376H1.90414V15.2334Z" fill="white"/>
<path d="M6.18854 15.2334H8.0927V17.1376H6.18854V15.2334Z" fill="white"/>
<path d="M14.7572 11.4249H16.6614V13.3291H14.7572V11.4249Z" fill="white"/>
<path d="M14.7668 15.2334H16.6709V17.1376H14.7668V15.2334Z" fill="white"/>
<path d="M6.18854 7.61658H8.0927V9.52073H6.18854V7.61658Z" fill="white"/>
<path d="M6.18854 11.4249H8.0927V13.3291H6.18854V11.4249Z" fill="white"/>
<path d="M14.7572 7.61658H16.6614V9.52073H14.7572V7.61658Z" fill="white"/>
<path d="M10.4729 11.4249H12.377V13.3291H10.4729V11.4249Z" fill="white"/>
<path d="M19.0416 11.4249H20.9457V13.3291H19.0416V11.4249Z" fill="white"/>
<path d="M10.4729 7.61658H12.377V9.52073H10.4729V7.61658Z" fill="white"/>
<path d="M19.0416 7.61658H20.9457V9.52073H19.0416V7.61658Z" fill="white"/>
<path d="M16.6709 17.1373V15.2332H14.7667V17.1373H16.6709ZM22.8499 14.7571C20.0075 14.7571 17.5801 16.5366 16.6185 19.0415H14.7667V20.9457H16.1949C16.1811 21.1028 16.1763 21.2694 16.1763 21.4312C16.1763 21.9168 16.2282 22.3928 16.3286 22.8498H0V5.7124H22.8499L22.8594 14.7571C22.8547 14.7571 22.8547 14.7571 22.8499 14.7571ZM20.9457 13.329V11.4249H19.0416V13.329H20.9457ZM20.9457 9.52072V7.61656H19.0416V9.52072H20.9457ZM16.6614 13.329V11.4249H14.7572V13.329H16.6614ZM16.6614 9.52072V7.61656H14.7572V9.52072H16.6614ZM12.377 20.9457V19.0415H10.4729V20.9457H12.377ZM12.377 17.1373V15.2332H10.4729V17.1373H12.377ZM12.377 13.329V11.4249H10.4729V13.329H12.377ZM12.377 9.52072V7.61656H10.4729V9.52072H12.377ZM8.09267 20.9457V19.0415H6.18851V20.9457H8.09267ZM8.09267 17.1373V15.2332H6.18851V17.1373H8.09267ZM8.09267 13.329V11.4249H6.18851V13.329H8.09267ZM8.09267 9.52072V7.61656H6.18851V9.52072H8.09267ZM3.80832 20.9457V19.0415H1.90416V20.9457H3.80832ZM3.80832 17.1373V15.2332H1.90416V17.1373H3.80832ZM3.80832 13.329V11.4249H1.90416V13.329H3.80832ZM3.80832 9.52072V7.61656H1.90416V9.52072H3.80832Z" fill="#E6E9ED"/>
<path d="M1.90414 7.61658H3.8083V9.52073H1.90414V7.61658Z" fill="white"/>
<path d="M3.80927 9.99674H1.90512C1.64187 9.99674 1.42908 9.78395 1.42908 9.5207V7.61654C1.42908 7.35329 1.64187 7.1405 1.90512 7.1405H3.80927C4.07252 7.1405 4.28531 7.35329 4.28531 7.61654V9.5207C4.28531 9.78395 4.07252 9.99674 3.80927 9.99674ZM2.38116 9.04466H3.33323V8.09258H2.38116V9.04466Z" fill="white"/>
<path d="M8.09364 9.99674H6.18948C5.92623 9.99674 5.71344 9.78395 5.71344 9.5207V7.61654C5.71344 7.35329 5.92623 7.1405 6.18948 7.1405H8.09364C8.35689 7.1405 8.56968 7.35329 8.56968 7.61654V9.5207C8.56968 9.78395 8.35689 9.99674 8.09364 9.99674ZM6.66552 9.04466H7.6176V8.09258H6.66552V9.04466Z" fill="white"/>
<path d="M12.378 9.99674H10.4738C10.2106 9.99674 9.99777 9.78395 9.99777 9.5207V7.61654C9.99777 7.35329 10.2106 7.1405 10.4738 7.1405H12.378C12.6412 7.1405 12.854 7.35329 12.854 7.61654V9.5207C12.854 9.78395 12.6412 9.99674 12.378 9.99674ZM10.9499 9.04466H11.9019V8.09258H10.9499V9.04466Z" fill="white"/>
<path d="M16.6624 9.99674H14.7582C14.495 9.99674 14.2822 9.78395 14.2822 9.5207V7.61654C14.2822 7.35329 14.495 7.1405 14.7582 7.1405H16.6624C16.9256 7.1405 17.1384 7.35329 17.1384 7.61654V9.5207C17.1384 9.78395 16.9256 9.99674 16.6624 9.99674ZM15.2342 9.04466H16.1863V8.09258H15.2342V9.04466Z" fill="white"/>
<path d="M3.80927 13.8052H1.90512C1.64187 13.8052 1.42908 13.5924 1.42908 13.3292V11.425C1.42908 11.1618 1.64187 10.949 1.90512 10.949H3.80927C4.07252 10.949 4.28531 11.1618 4.28531 11.425V13.3292C4.28531 13.5924 4.07252 13.8052 3.80927 13.8052ZM2.38116 12.8531H3.33323V11.9011H2.38116V12.8531Z" fill="white"/>
<path d="M8.09364 13.8052H6.18948C5.92623 13.8052 5.71344 13.5924 5.71344 13.3292V11.425C5.71344 11.1618 5.92623 10.949 6.18948 10.949H8.09364C8.35689 10.949 8.56968 11.1618 8.56968 11.425V13.3292C8.56968 13.5924 8.35689 13.8052 8.09364 13.8052ZM6.66552 12.8531H7.6176V11.9011H6.66552V12.8531Z" fill="white"/>
<path d="M12.378 13.8052H10.4738C10.2106 13.8052 9.99777 13.5924 9.99777 13.3292V11.425C9.99777 11.1618 10.2106 10.949 10.4738 10.949H12.378C12.6412 10.949 12.854 11.1618 12.854 11.425V13.3292C12.854 13.5924 12.6412 13.8052 12.378 13.8052ZM10.9499 12.8531H11.9019V11.9011H10.9499V12.8531Z" fill="white"/>
<path d="M3.80927 17.6133H1.90512C1.64187 17.6133 1.42908 17.4005 1.42908 17.1373V15.2331C1.42908 14.9699 1.64187 14.7571 1.90512 14.7571H3.80927C4.07252 14.7571 4.28531 14.9699 4.28531 15.2331V17.1373C4.28531 17.4005 4.07252 17.6133 3.80927 17.6133ZM2.38116 16.6612H3.33323V15.7092H2.38116V16.6612Z" fill="white"/>
<path d="M8.09364 17.6133H6.18948C5.92623 17.6133 5.71344 17.4005 5.71344 17.1373V15.2331C5.71344 14.9699 5.92623 14.7571 6.18948 14.7571H8.09364C8.35689 14.7571 8.56968 14.9699 8.56968 15.2331V17.1373C8.56968 17.4005 8.35689 17.6133 8.09364 17.6133ZM6.66552 16.6612H7.6176V15.7092H6.66552V16.6612Z" fill="white"/>
<path d="M12.378 17.6133H10.4738C10.2106 17.6133 9.99777 17.4005 9.99777 17.1373V15.2331C9.99777 14.9699 10.2106 14.7571 10.4738 14.7571H12.378C12.6412 14.7571 12.854 14.9699 12.854 15.2331V17.1373C12.854 17.4005 12.6412 17.6133 12.378 17.6133ZM10.9499 16.6612H11.9019V15.7092H10.9499V16.6612Z" fill="white"/>
<path d="M16.6709 17.6133H14.7667C14.5035 17.6133 14.2907 17.4005 14.2907 17.1373V15.2331C14.2907 14.9699 14.5035 14.7571 14.7667 14.7571H16.6709C16.9341 14.7571 17.1469 14.9699 17.1469 15.2331V17.1373C17.1469 17.4005 16.9341 17.6133 16.6709 17.6133ZM15.2428 16.6612H16.1948V15.7092H15.2428V16.6612Z" fill="white"/>
<path d="M19.0558 15.2334H20.96V17.1376H19.0558V15.2334Z" fill="white"/>
<path d="M20.9591 17.6133H19.0549C18.7916 17.6133 18.5789 17.4005 18.5789 17.1373V15.2331C18.5789 14.9699 18.7916 14.7571 19.0549 14.7571H20.9591C21.2223 14.7571 21.4351 14.9699 21.4351 15.2331V17.1373C21.4351 17.4005 21.2218 17.6133 20.9591 17.6133ZM19.5309 16.6612H20.483V15.7092H19.5309V16.6612Z" fill="white"/>
<path d="M16.1939 21.4218H14.7667C14.5035 21.4218 14.2907 21.209 14.2907 20.9457V19.0416C14.2907 18.7783 14.5035 18.5656 14.7667 18.5656H16.6185C16.8818 18.5656 17.0946 18.7783 17.0946 19.0416C17.0946 19.3048 16.8818 19.5176 16.6185 19.5176H15.2428V20.4697H16.1939C16.4571 20.4697 16.6699 20.6825 16.6699 20.9457C16.6699 21.209 16.4571 21.4218 16.1939 21.4218Z" fill="white"/>
<path d="M3.80927 21.4218H1.90512C1.64187 21.4218 1.42908 21.209 1.42908 20.9457V19.0416C1.42908 18.7783 1.64187 18.5656 1.90512 18.5656H3.80927C4.07252 18.5656 4.28531 18.7783 4.28531 19.0416V20.9457C4.28531 21.209 4.07252 21.4218 3.80927 21.4218ZM2.38116 20.4697H3.33323V19.5176H2.38116V20.4697Z" fill="white"/>
<path d="M8.09364 21.4218H6.18948C5.92623 21.4218 5.71344 21.209 5.71344 20.9457V19.0416C5.71344 18.7783 5.92623 18.5656 6.18948 18.5656H8.09364C8.35689 18.5656 8.56968 18.7783 8.56968 19.0416V20.9457C8.56968 21.209 8.35689 21.4218 8.09364 21.4218ZM6.66552 20.4697H7.6176V19.5176H6.66552V20.4697Z" fill="white"/>
<path d="M12.378 21.4218H10.4738C10.2106 21.4218 9.99777 21.209 9.99777 20.9457V19.0416C9.99777 18.7783 10.2106 18.5656 10.4738 18.5656H12.378C12.6412 18.5656 12.854 18.7783 12.854 19.0416V20.9457C12.854 21.209 12.6412 21.4218 12.378 21.4218ZM10.9499 20.4697H11.9019V19.5176H10.9499V20.4697Z" fill="white"/>
<path d="M16.6624 13.8052H14.7582C14.495 13.8052 14.2822 13.5924 14.2822 13.3292V11.425C14.2822 11.1618 14.495 10.949 14.7582 10.949H16.6624C16.9256 10.949 17.1384 11.1618 17.1384 11.425V13.3292C17.1384 13.5924 16.9256 13.8052 16.6624 13.8052ZM15.2342 12.8531H16.1863V11.9011H15.2342V12.8531Z" fill="white"/>
<path d="M20.9467 13.8052H19.0425C18.7793 13.8052 18.5665 13.5924 18.5665 13.3292V11.425C18.5665 11.1618 18.7793 10.949 19.0425 10.949H20.9467C21.2099 10.949 21.4227 11.1618 21.4227 11.425V13.3292C21.4227 13.5924 21.2099 13.8052 20.9467 13.8052ZM19.5186 12.8531H20.4707V11.9011H19.5186V12.8531Z" fill="white"/>
<path d="M20.9467 9.99674H19.0425C18.7793 9.99674 18.5665 9.78395 18.5665 9.5207V7.61654C18.5665 7.35329 18.7793 7.1405 19.0425 7.1405H20.9467C21.2099 7.1405 21.4227 7.35329 21.4227 7.61654V9.5207C21.4227 9.78395 21.2099 9.99674 20.9467 9.99674ZM19.5186 9.04466H20.4707V8.09258H19.5186V9.04466Z" fill="white"/>
<path d="M22.8509 28.5814C18.9088 28.5814 15.7017 25.3743 15.7017 21.4322C15.7017 17.4902 18.9083 14.2831 22.8509 14.2831C26.792 14.2831 30 17.4902 30 21.4322C30 25.3743 26.792 28.5814 22.8509 28.5814ZM22.8509 15.2352C19.4338 15.2352 16.6538 18.0152 16.6538 21.4322C16.6538 24.8492 19.4338 27.6293 22.8509 27.6293C26.2679 27.6293 29.0479 24.8492 29.0479 21.4322C29.0479 18.0152 26.2679 15.2352 22.8509 15.2352Z" fill="#656D78"/>
<path d="M3.56742 4.76081C4.22469 4.76081 4.75752 4.22799 4.75752 3.57071C4.75752 2.91344 4.22469 2.38062 3.56742 2.38062C2.91014 2.38062 2.37732 2.91344 2.37732 3.57071C2.37732 4.22799 2.91014 4.76081 3.56742 4.76081Z" fill="#DA4453"/>
<path d="M8.80526 4.7614C9.4628 4.7614 9.99583 4.22836 9.99583 3.57082C9.99583 2.91329 9.4628 2.38025 8.80526 2.38025C8.14772 2.38025 7.61469 2.91329 7.61469 3.57082C7.61469 4.22836 8.14772 4.7614 8.80526 4.7614Z" fill="#DA4453"/>
<path d="M14.0432 4.76081C14.7005 4.76081 15.2333 4.22799 15.2333 3.57071C15.2333 2.91344 14.7005 2.38062 14.0432 2.38062C13.3859 2.38062 12.8531 2.91344 12.8531 3.57071C12.8531 4.22799 13.3859 4.76081 14.0432 4.76081Z" fill="#DA4453"/>
<path d="M19.2806 4.76081C19.9378 4.76081 20.4707 4.22799 20.4707 3.57071C20.4707 2.91344 19.9378 2.38062 19.2806 2.38062C18.6233 2.38062 18.0905 2.91344 18.0905 3.57071C18.0905 4.22799 18.6233 4.76081 19.2806 4.76081Z" fill="#DA4453"/>
<path d="M4.28435 1.90416V3.57077C4.28435 3.96588 3.9654 4.28483 3.57029 4.28483C3.17518 4.28483 2.85623 3.96588 2.85623 3.57077V1.90416V0.714059C2.85623 0.318946 3.17518 0 3.57029 0C3.9654 0 4.28435 0.318946 4.28435 0.714059V1.90416Z" fill="#E6E9ED"/>
<path d="M14.7572 1.90416V3.57077C14.7572 3.96588 14.4383 4.28483 14.0432 4.28483C13.648 4.28483 13.3291 3.96588 13.3291 3.57077V1.90416V0.714059C13.3291 0.318946 13.648 0 14.0432 0C14.4383 0 14.7572 0.318946 14.7572 0.714059V1.90416Z" fill="#E6E9ED"/>
<path d="M9.52077 1.90416V3.57077C9.52077 3.96588 9.20182 4.28483 8.80671 4.28483C8.4116 4.28483 8.09265 3.96588 8.09265 3.57077V1.90416V0.714059C8.09265 0.318946 8.4116 0 8.80671 0C9.20182 0 9.52077 0.318946 9.52077 0.714059V1.90416Z" fill="#E6E9ED"/>
<path d="M19.9937 1.90416V3.57077C19.9937 3.96588 19.6747 4.28483 19.2796 4.28483C18.8845 4.28483 18.5656 3.96588 18.5656 3.57077V1.90416V0.714059C18.5656 0.318946 18.8845 0 19.2796 0C19.6747 0 19.9937 0.318946 19.9937 0.714059V1.90416Z" fill="#E6E9ED"/>
<path d="M22.8594 14.7571C22.8547 14.7571 22.8547 14.7571 22.8499 14.7571C20.0075 14.7571 17.5802 16.5365 16.6186 19.0414C16.3853 19.6365 16.242 20.2791 16.1944 20.9456C16.1806 21.1027 16.1758 21.2693 16.1758 21.4312C16.1758 21.9167 16.2277 22.3928 16.3282 22.8497C16.4372 23.3539 16.5986 23.8299 16.8137 24.2826C17.0613 24.7968 17.3659 25.2776 17.7325 25.706C18.9516 27.1722 20.7934 28.1047 22.8499 28.1047C26.5345 28.1047 29.524 25.1157 29.524 21.4307C29.524 17.7514 26.5392 14.7618 22.8594 14.7571Z" fill="#656D78"/>
<path d="M21.4351 19.5366H24.2913V22.8689H21.4351V19.5366Z" fill="#CCD1D9"/>
<path d="M25.2435 23.821V24.7731H20.4831V23.821C20.4831 23.293 20.9072 22.8689 21.4351 22.8689H24.2914C24.815 22.8689 25.2435 23.2926 25.2435 23.821Z" fill="#E6E9ED"/>
<path d="M24.2913 17.6326H23.3392H23.3388C23.3378 17.8949 23.126 18.1067 22.8632 18.1067C22.6004 18.1067 22.3886 17.8949 22.3876 17.6326H21.4351C21.1733 17.6326 20.959 17.8468 20.959 18.1086V19.0607C20.959 19.3225 21.1733 19.5367 21.4351 19.5367H24.2913C24.5531 19.5367 24.7674 19.3225 24.7674 19.0607V18.1086C24.7674 17.8468 24.5527 17.6326 24.2913 17.6326Z" fill="#E6E9ED"/>
<path d="M25.2382 25.2486H20.4745C20.2112 25.2486 19.9984 25.0358 19.9984 24.7725C19.9984 24.5093 20.2112 24.2965 20.4745 24.2965H25.2382C25.5014 24.2965 25.7142 24.5093 25.7142 24.7725C25.7142 25.0358 25.5014 25.2486 25.2382 25.2486Z" fill="#545C66"/>
</svg>
