<svg width="68" height="68" viewBox="0 0 68 68" fill="none" xmlns="http://www.w3.org/2000/svg">
<g filter="url(#filter0_f_58_374)">
<path d="M34 4C17.4274 4 4 17.4274 4 34C4 50.5726 17.4274 64 34 64C50.5726 64 64 50.5726 64 34C64 17.4274 50.5726 4 34 4ZM34 15.6129C39.879 15.6129 44.6452 20.379 44.6452 26.2581C44.6452 32.1371 39.879 36.9032 34 36.9032C28.121 36.9032 23.3548 32.1371 23.3548 26.2581C23.3548 20.379 28.121 15.6129 34 15.6129ZM34 57.2258C26.8992 57.2258 20.5363 54.0081 16.2782 48.9758C18.5524 44.6935 23.004 41.7419 28.1935 41.7419C28.4839 41.7419 28.7742 41.7903 29.0524 41.875C30.625 42.3831 32.2702 42.7097 34 42.7097C35.7298 42.7097 37.3871 42.3831 38.9476 41.875C39.2258 41.7903 39.5161 41.7419 39.8064 41.7419C44.996 41.7419 49.4476 44.6935 51.7218 48.9758C47.4637 54.0081 41.1008 57.2258 34 57.2258Z" fill="black"/>
</g>
<defs>
<filter id="filter0_f_58_374" x="0" y="0" width="68" height="68" filterUnits="userSpaceOnUse" color-interpolation-filters="sRGB">
<feFlood flood-opacity="0" result="BackgroundImageFix"/>
<feBlend mode="normal" in="SourceGraphic" in2="BackgroundImageFix" result="shape"/>
<feGaussianBlur stdDeviation="2" result="effect1_foregroundBlur_58_374"/>
</filter>
</defs>
</svg>
