<svg width="157" height="76" viewBox="0 0 157 76" fill="none" xmlns="http://www.w3.org/2000/svg">
<path d="M0 45.6618L69.2892 76L121.57 54.8805L157 39.9775L88.9239 11.0883" fill="#C9C9C9"/>
<path d="M0 45.6618L69.4604 74.7848L117.887 54.6504L155.063 29.4825L88.0483 0L54.2965 22.6511L0 45.6618Z" fill="#FFF3D9"/>
<path d="M6.33951 44.9894L70.1208 71.7286L114.59 53.2409L148.728 30.1295L87.1875 3.05603L56.1993 23.8591L6.33951 44.9894Z" fill="#68E1FD"/>
<path opacity="0.1" d="M87.1874 3.05603L56.1993 23.8591L114.59 53.2409L148.728 30.1295L87.1874 3.05603Z" fill="black"/>
<path d="M137.463 25.1751L126.731 31.7044L99.0104 26.7104L51.8311 49.135L48.2016 62.5387L41.1284 59.5761L46.2205 46.4564L97.1858 20.8822L124.544 26.3472L130.272 22.0112" fill="#F9EFD7"/>
<path d="M134.9 24.0463L133.936 24.6" stroke="#F7931E" stroke-width="0.892013" stroke-miterlimit="10" stroke-linecap="round"/>
<path d="M131.221 26.1603L127.929 28.0515" stroke="#F7931E" stroke-width="0.892013" stroke-miterlimit="10" stroke-linecap="round" stroke-dasharray="1.5 2.09"/>
<path d="M126.569 28.8317L125.611 29.3854L124.437 29.1265" stroke="#F7931E" stroke-width="0.892013" stroke-miterlimit="10" stroke-linecap="round"/>
<path d="M121.282 28.429L101.207 23.9958" stroke="#F7931E" stroke-width="0.892013" stroke-miterlimit="10" stroke-linecap="round" stroke-dasharray="1.43 2"/>
<path d="M99.6266 23.6471L98.4575 23.3882L97.4548 23.9059" stroke="#F7931E" stroke-width="0.892013" stroke-miterlimit="10" stroke-linecap="round"/>
<path d="M94.4905 25.4303L75.6482 35.1236" stroke="#F7931E" stroke-width="0.892013" stroke-miterlimit="10" stroke-linecap="round" stroke-dasharray="1.57 2.2"/>
<path d="M74.166 35.8859L73.1632 36.4" stroke="#F7931E" stroke-width="0.892013" stroke-miterlimit="10" stroke-linecap="round"/>
<path d="M72.317 39.3663C76.7475 39.3663 80.3392 38.1767 80.3392 36.7093C80.3392 35.2418 76.7475 34.0522 72.317 34.0522C67.8865 34.0522 64.2948 35.2418 64.2948 36.7093C64.2948 38.1767 67.8865 39.3663 72.317 39.3663Z" stroke="#39B54A" stroke-width="0.594675" stroke-miterlimit="10"/>
<path d="M86.3266 16.1866C86.3266 16.0788 86.3168 15.9721 86.2972 15.8666C85.9108 12.3827 82.7508 9.35172 78.4951 7.8812C76.7615 7.28912 74.8697 6.98939 72.9581 7.00392C71.0466 7.01845 69.1636 7.34688 67.447 7.96518C65.7304 8.58348 64.2235 9.47602 63.0366 10.5775C61.8497 11.679 61.0128 12.9615 60.5871 14.3314C59.6088 17.6356 61.1985 20.9829 62.8568 24.021C65.4275 28.7597 68.756 33.2568 72.772 37.4176C74.9236 35.2315 76.9188 32.9645 78.7495 30.6258C82.2519 26.2394 86.7423 21.4971 86.3266 16.1866Z" fill="#E55151"/>
<path d="M73.178 22.5144C77.4869 22.5144 80.98 19.9469 80.98 16.7797C80.98 13.6126 77.4869 11.045 73.178 11.045C68.869 11.045 65.3759 13.6126 65.3759 16.7797C65.3759 19.9469 68.869 22.5144 73.178 22.5144Z" fill="white"/>
<path d="M90.3229 30.838L97.1858 45.7842H125.606L122.842 47.6538H95.5422L87.9799 31.9526" fill="#F9EFD7"/>
<path d="M87.1874 3.05603L97.1858 20.8821L100.801 21.6048L91.1643 4.807L87.1874 3.05603Z" fill="#F9EFD7"/>
<path d="M32.529 33.5848L53.0931 43.5441L55.6808 41.7105L34.8622 32.3732" fill="#F9EFD7"/>
<path d="M16.92 49.1459C16.739 49.3616 41.867 38.1295 41.867 38.1295L62.4116 28.2745L60.6262 20.8931L59.55 21.6122L61.2034 27.9401L15.2617 48.7288" fill="#F9EFD7"/>
<path d="M26.1064 42.1096C28.4027 42.1096 30.2642 41.4834 30.2642 40.711C30.2642 39.9386 28.4027 39.3124 26.1064 39.3124C23.81 39.3124 21.9485 39.9386 21.9485 40.711C21.9485 41.4834 23.81 42.1096 26.1064 42.1096Z" fill="#B3B3B3"/>
<path d="M51.8311 49.1458C51.8311 49.1458 78.0744 45.5971 85.0938 53.9852C92.1132 62.3734 87.1727 64.6457 87.1727 64.6457L91.6388 62.7868C91.6388 62.7868 91.8736 52.8239 78.7837 48.7395C65.6938 44.6551 54.3258 47.0353 54.3258 47.0353" fill="#F9EFD7"/>
<path opacity="0.28" d="M55.4167 65.5661C55.6955 65.4654 63.5318 63.4304 63.5318 63.4304L64.9993 65.3648L60.2349 67.5975L55.4167 65.5661Z" fill="url(#paint0_linear_66_702)"/>
<path opacity="0.28" d="M67.3276 67.3782C67.6065 67.2776 78.0891 64.4587 78.0891 64.4587L79.268 65.3612L71.7252 69.4708L67.3276 67.3782Z" fill="url(#paint1_linear_66_702)"/>
<path opacity="0.28" d="M59.912 61.1186C60.3571 60.9568 71.73 57.9978 71.73 57.9978L73.1486 59.7056L64.4758 64.4588L59.912 61.1186Z" fill="url(#paint2_linear_66_702)"/>
<path d="M72.5616 48.0096H72.0822C71.5392 48.0096 71.099 48.3332 71.099 48.7323V59.213C71.099 59.6121 71.5392 59.9357 72.0822 59.9357H72.5616C73.1046 59.9357 73.5448 59.6121 73.5448 59.213V48.7323C73.5448 48.3332 73.1046 48.0096 72.5616 48.0096Z" fill="#BC532A"/>
<path d="M78.3631 50.451C77.8005 48.6532 75.2911 40.7217 70.8496 43.0516C68.575 44.2453 67.9146 46.1113 67.0195 47.9378C66.1929 49.4435 65.7151 51.0404 65.6058 52.6621C65.5324 55.9627 70.1012 56.3654 73.5938 56.3546C75.6091 56.3546 78.4853 55.4738 78.9745 53.8666C79.2582 52.8958 78.7739 51.7525 78.4853 50.8033L78.3631 50.451Z" fill="#2C9135"/>
<path d="M78.5782 50.7997L78.4706 50.4401C77.9815 48.8473 75.9515 42.4655 72.4197 42.6201C73.4665 45.9854 75.0172 49.5413 74.1905 52.9857C73.9265 54.1879 73.2869 55.3287 72.3219 56.3186C72.8111 56.3186 73.2562 56.3402 73.7013 56.3402C75.7167 56.3402 78.5929 55.4593 79.0821 53.8522C79.3413 52.8958 78.857 51.7488 78.5782 50.7997Z" fill="#156819"/>
<path d="M78.4364 57.3146H78.4315C77.9615 57.3146 77.5804 57.5947 77.5804 57.9402V65.0052C77.5804 65.3507 77.9615 65.6308 78.4315 65.6308H78.4364C78.9065 65.6308 79.2875 65.3507 79.2875 65.0052V57.9402C79.2875 57.5947 78.9065 57.3146 78.4364 57.3146Z" fill="#BC532A"/>
<path d="M82.648 59.0153C82.2518 57.7605 80.5055 52.2307 77.4092 53.8558C75.8243 54.69 75.3743 55.9879 74.7384 57.2607C74.1646 58.3107 73.8339 59.4239 73.76 60.5541C73.7111 62.8552 76.8955 63.1356 79.3316 63.1284C80.7354 63.1284 82.7557 62.5136 83.0687 61.3918C83.2644 60.7159 82.9317 59.9177 82.7312 59.2562L82.648 59.0153Z" fill="#2C9135"/>
<path d="M82.7948 59.2597L82.7214 59.0152C82.3741 57.9042 80.9653 53.4531 78.5049 53.5646C79.2386 55.9124 80.3148 58.3896 79.7376 60.7914C79.5544 61.6303 79.109 62.4266 78.4364 63.1176H79.4147C80.8186 63.1176 82.8388 62.5028 83.1519 61.381C83.328 60.7194 82.9905 59.9321 82.7948 59.2597Z" fill="#156819"/>
<path d="M64.2508 54.2297H63.8791C63.3361 54.2297 62.8959 54.5533 62.8959 54.9524V64.9081C62.8959 65.3073 63.3361 65.6308 63.8791 65.6308H64.2508C64.7938 65.6308 65.234 65.3073 65.234 64.9081V54.9524C65.234 54.5533 64.7938 54.2297 64.2508 54.2297Z" fill="#BC532A"/>
<path d="M69.8468 56.5632C69.3088 54.8446 66.9119 47.2619 62.666 49.491C60.4892 50.6308 59.8729 52.4177 59.0071 54.1651C58.2157 55.6042 57.7577 57.1306 57.6521 58.6809C57.5837 61.8341 61.9469 62.2224 65.2879 62.208C67.2152 62.208 69.9593 61.3667 70.4094 59.8278C70.6784 58.9002 70.2186 57.8072 69.9496 56.9012L69.8468 56.5632Z" fill="#2C9135"/>
<path d="M70.0473 56.8976L69.9446 56.5632C69.4554 55.0423 67.538 48.9373 64.1628 49.0883C65.1655 52.3062 66.6428 55.7039 65.8552 58.9973C65.6038 60.1476 64.9926 61.2393 64.0698 62.1864C64.5198 62.1864 64.9601 62.208 65.3857 62.208C67.3129 62.208 70.0571 61.3667 70.5071 59.8278C70.7811 58.8966 70.3164 57.8036 70.0473 56.8976Z" fill="#156819"/>
<path opacity="0.28" d="M106.622 40.9052C103.491 41.7465 98.9419 42.9725 98.756 43.0408L103.158 45.1334L108.236 42.3685C107.561 41.9716 107.01 41.4725 106.622 40.9052Z" fill="url(#paint3_linear_66_702)"/>
<path d="M108.192 42.4979L108.251 42.4512V27.71H105.629V42.4728C106 42.6712 106.446 42.7801 106.905 42.7846C107.364 42.7891 107.813 42.689 108.192 42.4979Z" fill="#D3894C"/>
<path d="M106.94 32.7651L102.601 34.7066L101.084 34.0594L101.706 32.6213L105.908 30.8271L106.94 32.7651Z" fill="#D3894C"/>
<path d="M105.907 31.1938L102.097 32.8657L101.417 34.2032L102.601 34.7066L105.839 33.2576L105.907 31.1938Z" fill="#C66B28"/>
<path d="M107.223 29.5436L110.843 28.1378L112.496 28.8893L110.843 30.1513L108.329 30.5647" fill="#D3894C"/>
<path d="M108.192 42.4979L108.251 42.4512V27.71H107.077V42.7784C107.476 42.7608 107.861 42.6639 108.192 42.4979Z" fill="#C66B28"/>
<path d="M107.077 30.0649L111.596 28.4038L112.496 28.8892L112.154 29.8995L107.766 31.7224" fill="#C66B28"/>
<path d="M106.94 28.206C107.664 28.206 108.251 27.9871 108.251 27.717C108.251 27.447 107.664 27.228 106.94 27.228C106.216 27.228 105.629 27.447 105.629 27.717C105.629 27.9871 106.216 28.206 106.94 28.206Z" fill="#EAA068"/>
<path opacity="0.28" d="M14.8459 43.0336C15.1247 42.9329 25.6074 40.1141 25.6074 40.1141L26.7863 41.0166L19.2581 45.1333L14.8459 43.0336Z" fill="url(#paint4_linear_66_702)"/>
<path d="M26.8645 40.9807L26.8988 40.934V26.1927H25.3139V40.9555C25.3973 41.0497 25.5107 41.1274 25.6442 41.182C25.7778 41.2367 25.9274 41.2665 26.0802 41.269C26.233 41.2715 26.3843 41.2465 26.5209 41.1963C26.6576 41.146 26.7756 41.072 26.8645 40.9807Z" fill="#E6E6E6"/>
<path d="M26.8645 40.9807L26.8988 40.934V26.1927H26.1895V41.2612C26.4546 41.2336 26.6957 41.1334 26.8645 40.9807Z" fill="#B3B3B3"/>
<path d="M26.1063 26.6888C26.544 26.6888 26.8988 26.4698 26.8988 26.1998C26.8988 25.9297 26.544 25.7108 26.1063 25.7108C25.6687 25.7108 25.3139 25.9297 25.3139 26.1998C25.3139 26.4698 25.6687 26.6888 26.1063 26.6888Z" fill="#DDDAA5"/>
<path d="M30.7164 27.3898C31.3815 25.3139 29.9103 23.2831 27.4306 22.854C24.9509 22.4248 22.4015 23.7597 21.7365 25.8356C21.0715 27.9114 22.5426 29.9422 25.0224 30.3713C27.5021 30.8005 30.0514 29.4656 30.7164 27.3898Z" fill="#CA4050"/>
<path d="M30.0777 27.3046C30.6276 25.5883 29.4105 23.9091 27.3594 23.5541C25.3083 23.1991 23.1998 24.3027 22.65 26.0191C22.1002 27.7354 23.3172 29.4146 25.3683 29.7696C27.4194 30.1246 29.5279 29.021 30.0777 27.3046Z" fill="white"/>
<path d="M28.5179 23.6937L23.9834 29.2558C23.9834 29.2558 24.6878 30.6221 25.0351 30.0217C25.3824 29.4212 29.6234 24.2906 29.6234 24.2906L28.5179 23.6937Z" fill="#CA4050"/>
<path opacity="0.28" d="M43.0165 32.3732C39.8859 33.2145 35.3368 34.4405 35.1509 34.5088L39.1473 36.4036L43.9215 33.3367C43.2464 32.9376 43.4079 32.9412 43.0165 32.3732Z" fill="url(#paint5_linear_66_702)"/>
<path opacity="0.28" d="M51.4398 36.8639C48.3092 37.7052 43.76 38.9313 43.5742 38.9996L47.5706 40.8944L52.3447 37.8275C51.6648 37.432 51.8311 37.432 51.4398 36.8639Z" fill="url(#paint6_linear_66_702)"/>
<path opacity="0.28" d="M50.6522 29.3207C47.5216 30.162 42.9725 31.388 42.7866 31.4564L46.783 33.3511L51.5572 30.2842C50.8773 29.8888 51.0436 29.8888 50.6522 29.3207Z" fill="url(#paint7_linear_66_702)"/>
<path d="M52.6284 34.9547C52.6284 34.5834 52.2189 34.2823 51.7137 34.2823C51.2085 34.2823 50.799 34.5834 50.799 34.9547V37.4427C50.799 37.814 51.2085 38.1151 51.7137 38.1151C52.2189 38.1151 52.6284 37.814 52.6284 37.4427V34.9547Z" fill="#BC532A"/>
<path d="M51.7137 36.8637C53.6534 36.8637 55.2259 35.7079 55.2259 34.2822C55.2259 32.8565 53.6534 31.7007 51.7137 31.7007C49.774 31.7007 48.2016 32.8565 48.2016 34.2822C48.2016 35.7079 49.774 36.8637 51.7137 36.8637Z" fill="#9CD861"/>
<path d="M51.7138 31.7007C51.5153 31.7016 51.3173 31.7148 51.1219 31.7402C51.8317 32.0342 52.4069 32.4764 52.7744 33.0109C53.1419 33.5453 53.2852 34.148 53.1861 34.7424C53.1059 35.2027 52.8562 35.6382 52.4639 36.0019C52.0717 36.3656 51.5519 36.6437 50.9604 36.8062C51.4427 36.8847 51.942 36.8876 52.4259 36.8146C52.9098 36.7417 53.3672 36.5945 53.7685 36.3828C54.1697 36.171 54.5056 35.8995 54.7544 35.5858C55.0031 35.2722 55.1591 34.9235 55.212 34.5625C55.265 34.2016 55.2137 33.8365 55.0617 33.491C54.9096 33.1456 54.6601 32.8277 54.3295 32.5579C53.9989 32.2882 53.5947 32.0727 53.1431 31.9256C52.6915 31.7785 52.2028 31.7031 51.7089 31.7043L51.7138 31.7007Z" fill="#54BA56"/>
<path d="M43.0067 28.9396H42.5518C42.0466 28.9396 41.6371 29.2406 41.6371 29.6119V33.0599C41.6371 33.4312 42.0466 33.7323 42.5518 33.7323H43.0067C43.5119 33.7323 43.9214 33.4312 43.9214 33.0599V29.6119C43.9214 29.2406 43.5119 28.9396 43.0067 28.9396Z" fill="#BC532A"/>
<path d="M42.7768 32.1682C45.2028 32.1682 47.1695 30.7227 47.1695 28.9395C47.1695 27.1563 45.2028 25.7108 42.7768 25.7108C40.3508 25.7108 38.3842 27.1563 38.3842 28.9395C38.3842 30.7227 40.3508 32.1682 42.7768 32.1682Z" fill="#9CD861"/>
<path d="M42.7915 25.7108C42.5438 25.7123 42.2967 25.7292 42.0529 25.7612C42.941 26.1283 43.6607 26.6811 44.1205 27.3494C44.5804 28.0178 44.7597 28.7714 44.6356 29.5148C44.5349 30.09 44.2225 30.6341 43.732 31.0884C43.2415 31.5427 42.5916 31.89 41.8523 32.0927C42.4605 32.1999 43.0928 32.2107 43.7071 32.1242C44.3214 32.0377 44.9036 31.8561 45.4149 31.5913C45.9262 31.3265 46.3548 30.9846 46.6723 30.5885C46.9898 30.1924 47.1887 29.7511 47.256 29.2941C47.3233 28.837 47.2573 28.3747 47.0624 27.9378C46.8675 27.501 46.5482 27.0997 46.1258 26.7606C45.7034 26.4216 45.1875 26.1526 44.6126 25.9716C44.0377 25.7906 43.4168 25.7017 42.7915 25.7108Z" fill="#54BA56"/>
<path d="M51.88 27.2856C51.88 26.9143 51.4705 26.6133 50.9653 26.6133C50.4601 26.6133 50.0506 26.9143 50.0506 27.2856V29.7737C50.0506 30.145 50.4601 30.446 50.9653 30.446C51.4705 30.446 51.88 30.145 51.88 29.7737V27.2856Z" fill="#BC532A"/>
<path d="M50.9605 29.1948C52.9002 29.1948 54.4726 28.039 54.4726 26.6133C54.4726 25.1875 52.9002 24.0317 50.9605 24.0317C49.0207 24.0317 47.4483 25.1875 47.4483 26.6133C47.4483 28.039 49.0207 29.1948 50.9605 29.1948Z" fill="#9CD861"/>
<path d="M50.9604 24.0317C50.762 24.0326 50.564 24.0459 50.3685 24.0713C51.0784 24.3652 51.6536 24.8074 52.0211 25.3419C52.3886 25.8764 52.5319 26.479 52.4328 27.0735C52.3525 27.5338 52.1028 27.9693 51.7106 28.333C51.3184 28.6967 50.7985 28.9747 50.2071 29.1372C50.6894 29.2158 51.1887 29.2186 51.6726 29.1457C52.1564 29.0727 52.6139 28.9256 53.0151 28.7138C53.4164 28.5021 53.7523 28.2305 54.0011 27.9169C54.2498 27.6032 54.4057 27.2545 54.4587 26.8936C54.5116 26.5326 54.4604 26.1675 54.3083 25.8221C54.1563 25.4767 53.9068 25.1587 53.5762 24.889C53.2456 24.6192 52.8413 24.4038 52.3897 24.2567C51.9382 24.1096 51.4495 24.0342 50.9555 24.0353L50.9604 24.0317Z" fill="#54BA56"/>
<path opacity="0.28" d="M71.4219 35.5264C66.1879 37.0796 58.5815 39.3483 58.2733 39.4813L64.9504 42.9797L72.9334 37.3169C71.8034 36.5619 72.0725 36.5618 71.4219 35.5264Z" fill="url(#paint8_linear_66_702)"/>
<defs>
<linearGradient id="paint0_linear_66_702" x1="58.244" y1="66.6088" x2="63.8173" y2="60.6049" gradientUnits="userSpaceOnUse">
<stop stop-opacity="0"/>
<stop offset="1"/>
</linearGradient>
<linearGradient id="paint1_linear_66_702" x1="72.1899" y1="67.3459" x2="80.2489" y2="61.2811" gradientUnits="userSpaceOnUse">
<stop stop-opacity="0"/>
<stop offset="1"/>
</linearGradient>
<linearGradient id="paint2_linear_66_702" x1="63.7617" y1="62.0714" x2="69.9614" y2="56.7682" gradientUnits="userSpaceOnUse">
<stop stop-opacity="0"/>
<stop offset="1"/>
</linearGradient>
<linearGradient id="paint3_linear_66_702" x1="101.275" y1="43.9397" x2="109.027" y2="37.1983" gradientUnits="userSpaceOnUse">
<stop stop-opacity="0"/>
<stop offset="1"/>
</linearGradient>
<linearGradient id="paint4_linear_66_702" x1="16.9004" y1="44.1662" x2="26.2668" y2="34.9801" gradientUnits="userSpaceOnUse">
<stop stop-opacity="0"/>
<stop offset="1"/>
</linearGradient>
<linearGradient id="paint5_linear_66_702" x1="37.5135" y1="35.2819" x2="45.0415" y2="28.7333" gradientUnits="userSpaceOnUse">
<stop stop-opacity="0"/>
<stop offset="1"/>
</linearGradient>
<linearGradient id="paint6_linear_66_702" x1="45.9368" y1="39.7762" x2="53.4648" y2="33.2276" gradientUnits="userSpaceOnUse">
<stop stop-opacity="0"/>
<stop offset="1"/>
</linearGradient>
<linearGradient id="paint7_linear_66_702" x1="45.1492" y1="32.233" x2="52.6772" y2="25.6844" gradientUnits="userSpaceOnUse">
<stop stop-opacity="0"/>
<stop offset="1"/>
</linearGradient>
<linearGradient id="paint8_linear_66_702" x1="62.348" y1="40.8728" x2="75.0974" y2="29.7823" gradientUnits="userSpaceOnUse">
<stop stop-opacity="0"/>
<stop offset="1"/>
</linearGradient>
</defs>
</svg>
