<svg width="81" height="104" viewBox="0 0 81 104" fill="none" xmlns="http://www.w3.org/2000/svg">
<g clip-path="url(#clip0_12_157)">
<path d="M79.8989 89.9153L64.1245 69.6658C63.4126 68.7517 62.4475 68.2439 61.435 68.2439H58.8563C63.2227 61.0736 65.8172 52.0569 65.8172 42.2459C65.8172 18.9089 51.087 0 32.9094 0C14.7319 0 0 18.9089 0 42.2459C0 65.583 14.7303 84.4919 32.9094 84.4919C40.5506 84.4919 47.5764 81.1606 53.161 75.5544V78.8653C53.161 80.1653 53.5565 81.4044 54.2684 82.3184L70.0428 102.568C71.53 104.477 73.9347 104.477 75.4059 102.568L79.8831 96.8195C81.3702 94.9102 81.3702 91.8247 79.8989 89.9153ZM32.9094 71.4919C20.3259 71.4919 10.1282 58.4228 10.1282 42.2459C10.1282 26.0914 20.3085 13 32.9094 13C45.4929 13 55.6907 26.0691 55.6907 42.2459C55.6907 58.4005 45.5103 71.4919 32.9094 71.4919ZM32.9126 22.75C26.4611 22.75 21.2309 29.4633 21.2309 37.7467C21.2309 44.4417 28.8657 56.6475 31.7909 61.0777C31.9281 61.2884 32.0997 61.458 32.2935 61.5743C32.4873 61.6906 32.6986 61.7509 32.9126 61.7509C33.1265 61.7509 33.3379 61.6906 33.5317 61.5743C33.7255 61.458 33.897 61.2884 34.0342 61.0777C36.9594 56.6475 44.5943 44.4438 44.5943 37.7467C44.5943 29.4633 39.3641 22.75 32.9126 22.75ZM32.9126 42.25C30.8148 42.25 29.1157 40.0664 29.1157 37.375C29.1157 34.6816 30.8164 32.5 32.9126 32.5C35.0088 32.5 36.7095 34.6816 36.7095 37.375C36.7095 40.0664 35.0088 42.25 32.9126 42.25Z" fill="black"/>
</g>
<defs>
<clipPath id="clip0_12_157">
<rect width="81" height="104" fill="white"/>
</clipPath>
</defs>
</svg>
