<svg width="30" height="20" viewBox="0 0 30 20" fill="none" xmlns="http://www.w3.org/2000/svg">
<g filter="url(#filter0_f_58_359)">
<path d="M11.425 10.7H9.775C9.47112 10.7 9.225 10.8566 9.225 11.05V15.25C9.225 15.4434 9.47112 15.6 9.775 15.6H11.425C11.7289 15.6 11.975 15.4434 11.975 15.25V11.05C11.975 10.8566 11.7289 10.7 11.425 10.7ZM7.025 12.8H5.375C5.07112 12.8 4.825 12.9566 4.825 13.15V15.25C4.825 15.4434 5.07112 15.6 5.375 15.6H7.025C7.32887 15.6 7.575 15.4434 7.575 15.25V13.15C7.575 12.9566 7.32887 12.8 7.025 12.8ZM15.825 8.60002H14.175C13.8711 8.60002 13.625 8.75665 13.625 8.95002V15.25C13.625 15.4434 13.8711 15.6 14.175 15.6H15.825C16.1289 15.6 16.375 15.4434 16.375 15.25V8.95002C16.375 8.75665 16.1289 8.60002 15.825 8.60002ZM20.225 6.50002H18.575C18.2711 6.50002 18.025 6.65665 18.025 6.85002V15.25C18.025 15.4434 18.2711 15.6 18.575 15.6H20.225C20.5289 15.6 20.775 15.4434 20.775 15.25V6.85002C20.775 6.65665 20.5289 6.50002 20.225 6.50002ZM24.625 4.40002H22.975C22.6711 4.40002 22.425 4.55665 22.425 4.75002V15.25C22.425 15.4434 22.6711 15.6 22.975 15.6H24.625C24.9289 15.6 25.175 15.4434 25.175 15.25V4.75002C25.175 4.55665 24.9289 4.40002 24.625 4.40002Z" fill="white"/>
</g>
<defs>
<filter id="filter0_f_58_359" x="0" y="-1" width="30" height="22" filterUnits="userSpaceOnUse" color-interpolation-filters="sRGB">
<feFlood flood-opacity="0" result="BackgroundImageFix"/>
<feBlend mode="normal" in="SourceGraphic" in2="BackgroundImageFix" result="shape"/>
<feGaussianBlur stdDeviation="2" result="effect1_foregroundBlur_58_359"/>
</filter>
</defs>
</svg>
