<svg width="22" height="14" viewBox="0 0 22 14" fill="none" xmlns="http://www.w3.org/2000/svg">
<path d="M7.425 7.69999H5.775C5.47112 7.69999 5.225 7.85662 5.225 8.04999V12.25C5.225 12.4434 5.47112 12.6 5.775 12.6H7.425C7.72887 12.6 7.975 12.4434 7.975 12.25V8.04999C7.975 7.85662 7.72887 7.69999 7.425 7.69999ZM3.025 9.79999H1.375C1.07112 9.79999 0.824997 9.95662 0.824997 10.15V12.25C0.824997 12.4434 1.07112 12.6 1.375 12.6H3.025C3.32887 12.6 3.575 12.4434 3.575 12.25V10.15C3.575 9.95662 3.32887 9.79999 3.025 9.79999ZM11.825 5.59999H10.175C9.87112 5.59999 9.625 5.75662 9.625 5.94999V12.25C9.625 12.4434 9.87112 12.6 10.175 12.6H11.825C12.1289 12.6 12.375 12.4434 12.375 12.25V5.94999C12.375 5.75662 12.1289 5.59999 11.825 5.59999ZM16.225 3.49999H14.575C14.2711 3.49999 14.025 3.65662 14.025 3.84999V12.25C14.025 12.4434 14.2711 12.6 14.575 12.6H16.225C16.5289 12.6 16.775 12.4434 16.775 12.25V3.84999C16.775 3.65662 16.5289 3.49999 16.225 3.49999ZM20.625 1.39999H18.975C18.6711 1.39999 18.425 1.55662 18.425 1.74999V12.25C18.425 12.4434 18.6711 12.6 18.975 12.6H20.625C20.9289 12.6 21.175 12.4434 21.175 12.25V1.74999C21.175 1.55662 20.9289 1.39999 20.625 1.39999Z" fill="white"/>
</svg>
