<svg width="38" height="38" viewBox="0 0 38 38" fill="none" xmlns="http://www.w3.org/2000/svg">
<g filter="url(#filter0_f_58_392)">
<path d="M33.1445 25.1991L26.5818 22.3865C26.3015 22.267 25.9899 22.2419 25.694 22.3148C25.3981 22.3877 25.1339 22.5548 24.9412 22.7908L22.0349 26.3417C17.4737 24.1911 13.803 20.5204 11.6525 15.9593L15.2033 13.0529C15.4399 12.8606 15.6073 12.5964 15.6802 12.3003C15.7532 12.0043 15.7277 11.6926 15.6076 11.4123L12.7951 4.84968C12.6633 4.54757 12.4302 4.30091 12.1361 4.15222C11.8419 4.00354 11.5051 3.96216 11.1837 4.03521L5.08986 5.44149C4.78 5.51304 4.50353 5.68751 4.30559 5.93643C4.10765 6.18534 3.99993 6.494 4 6.81202C4 21.8416 16.1819 34 31.188 34C31.5061 34.0002 31.8149 33.8925 32.0639 33.6946C32.313 33.4966 32.4875 33.2201 32.5591 32.9101L33.9654 26.8163C34.0379 26.4933 33.9957 26.1552 33.8459 25.86C33.696 25.5648 33.448 25.3311 33.1445 25.1991Z" fill="#078804"/>
<path d="M15.6076 11.4123C15.7277 11.6926 15.7532 12.0043 15.6802 12.3003C15.6073 12.5964 15.4399 12.8606 15.2033 13.0529L11.6525 15.9593C13.803 20.5204 17.4737 24.1911 22.0349 26.3417L24.9412 22.7908C25.1339 22.5548 25.3981 22.3877 25.694 22.3148C25.9899 22.2419 26.3015 22.267 26.5818 22.3865M15.6076 11.4123L12.7951 4.84968M15.6076 11.4123L14.6885 11.8062L14.6884 11.8061M15.6076 11.4123L14.6884 11.8061M12.7951 4.84968C12.6633 4.54757 12.4302 4.30091 12.1361 4.15222M12.7951 4.84968L11.8785 5.24947C11.8782 5.24878 11.8779 5.2481 11.8776 5.24741M12.7951 4.84968L11.8759 5.2436L11.8776 5.24741M12.1361 4.15222C11.8419 4.00354 11.5051 3.96216 11.1837 4.03521M12.1361 4.15222L11.685 5.0447C11.7707 5.08801 11.8387 5.15965 11.8776 5.24741M12.1361 4.15222L11.685 5.0447C11.599 5.00122 11.5005 4.98899 11.4065 5.01008L11.4086 5.0096L11.1837 4.03521M11.1837 4.03521L5.08986 5.44149C4.78 5.51304 4.50353 5.68751 4.30559 5.93643C4.10765 6.18534 3.99993 6.494 4 6.81202C4 21.8416 16.1819 34 31.188 34C31.5061 34.0002 31.8149 33.8925 32.0639 33.6946M11.1837 4.03521L11.4054 5.01034L5.31486 6.41585L5.08991 5.44171L5.31472 6.41588C5.22526 6.43657 5.14544 6.48696 5.08829 6.55883C5.0311 6.63075 4.99998 6.71992 5 6.81179L5 6.81202C5 21.2887 16.7336 33 31.188 33H31.1886C31.2805 33.0001 31.3697 32.969 31.4417 32.9118L32.0639 33.6946M32.0639 33.6946C32.313 33.4966 32.4875 33.2201 32.5591 32.9101M32.0639 33.6946L31.4417 32.9118C31.5136 32.8546 31.564 32.7748 31.5847 32.6853L32.5591 32.9101M32.5591 32.9101L33.9654 26.8163M32.5591 32.9101L31.5847 32.6851L32.9897 26.597L33.9654 26.8163M33.9654 26.8163C34.0379 26.4933 33.9957 26.1552 33.8459 25.86C33.696 25.5648 33.448 25.3311 33.1445 25.1991M33.9654 26.8163L32.991 26.5914L32.9902 26.5949C33.0111 26.4995 32.9984 26.3998 32.9542 26.3126C32.9099 26.2254 32.8368 26.1562 32.7473 26.1168L32.7505 26.1182L33.1445 25.1991M33.1445 25.1991L26.5818 22.3865M33.1445 25.1991L32.7456 26.1161L26.1898 23.3065L26.5818 22.3865M26.5818 22.3865L26.1879 23.3057L26.189 23.3061C26.1082 23.2719 26.0185 23.2647 25.9333 23.2857C25.8478 23.3068 25.7715 23.3551 25.7158 23.4233L25.715 23.4242L22.8087 26.975L22.3144 27.579L21.6084 27.2462C16.8372 24.9966 12.9975 21.1569 10.748 16.3857L10.4151 15.6798L11.0191 15.1854L14.5699 12.2791L14.5723 12.2771C14.6403 12.2219 14.6883 12.1461 14.7093 12.0611C14.7302 11.9761 14.7229 11.8866 14.6884 11.8061M14.6884 11.8061L11.8776 5.24741" stroke="white" stroke-width="2"/>
</g>
<defs>
<filter id="filter0_f_58_392" x="0" y="0" width="38" height="38" filterUnits="userSpaceOnUse" color-interpolation-filters="sRGB">
<feFlood flood-opacity="0" result="BackgroundImageFix"/>
<feBlend mode="normal" in="SourceGraphic" in2="BackgroundImageFix" result="shape"/>
<feGaussianBlur stdDeviation="2" result="effect1_foregroundBlur_58_392"/>
</filter>
</defs>
</svg>
