<svg width="35" height="30" viewBox="0 0 35 30" fill="none" xmlns="http://www.w3.org/2000/svg">
<path d="M17.5 0C7.83266 0 0 6.71371 0 15C0 23.2863 7.83266 30 17.5 30C27.1673 30 35 23.2863 35 15C35 6.71371 27.1673 0 17.5 0ZM17.5 5.80645C20.9294 5.80645 23.7097 8.18952 23.7097 11.129C23.7097 14.0685 20.9294 16.4516 17.5 16.4516C14.0706 16.4516 11.2903 14.0685 11.2903 11.129C11.2903 8.18952 14.0706 5.80645 17.5 5.80645ZM17.5 26.6129C13.3579 26.6129 9.64617 25.004 7.1623 22.4879C8.48891 20.3468 11.0857 18.871 14.1129 18.871C14.2823 18.871 14.4516 18.8952 14.6139 18.9375C15.5313 19.1915 16.4909 19.3548 17.5 19.3548C18.5091 19.3548 19.4758 19.1915 20.3861 18.9375C20.5484 18.8952 20.7177 18.871 20.8871 18.871C23.9143 18.871 26.5111 20.3468 27.8377 22.4879C25.3538 25.004 21.6421 26.6129 17.5 26.6129Z" fill="black"/>
</svg>
