<svg width="43" height="38" viewBox="0 0 43 38" fill="none" xmlns="http://www.w3.org/2000/svg">
<g filter="url(#filter0_f_58_394)">
<path d="M21.036 11.7828L9.83379 21.9524V32.9285C9.83379 33.2126 9.93622 33.4852 10.1185 33.6862C10.3008 33.8871 10.5481 34 10.8059 34L17.6146 33.9806C17.8716 33.9792 18.1176 33.8656 18.2989 33.6648C18.4802 33.464 18.5819 33.1923 18.5819 32.909V26.4992C18.5819 26.215 18.6843 25.9424 18.8666 25.7415C19.049 25.5405 19.2962 25.4276 19.5541 25.4276H23.4426C23.7005 25.4276 23.9477 25.5405 24.1301 25.7415C24.3124 25.9424 24.4148 26.215 24.4148 26.4992V32.9043C24.4144 33.0453 24.4392 33.185 24.4879 33.3154C24.5366 33.4458 24.6081 33.5643 24.6985 33.6642C24.7888 33.7641 24.8961 33.8433 25.0142 33.8974C25.1324 33.9514 25.259 33.9792 25.3869 33.9792L32.1932 34C32.451 34 32.6983 33.8871 32.8806 33.6862C33.0629 33.4852 33.1653 33.2126 33.1653 32.9285V21.9451L21.9656 11.7828C21.8339 11.6658 21.6699 11.602 21.5008 11.602C21.3317 11.602 21.1676 11.6658 21.036 11.7828ZM38.7309 18.6949L33.6514 14.0799V4.80366C33.6514 4.59052 33.5746 4.3861 33.4379 4.23539C33.3011 4.08467 33.1157 4 32.9223 4H29.5198C29.3264 4 29.141 4.08467 29.0042 4.23539C28.8675 4.3861 28.7907 4.59052 28.7907 4.80366V9.66648L23.3509 4.73334C22.8289 4.25984 22.1738 4.00095 21.4977 4.00095C20.8217 4.00095 20.1666 4.25984 19.6446 4.73334L4.26461 18.6949C4.19078 18.7622 4.12969 18.8448 4.08485 18.9381C4.04 19.0314 4.01227 19.1335 4.00325 19.2387C3.99422 19.3438 4.00407 19.4498 4.03223 19.5507C4.0604 19.6516 4.10632 19.7454 4.16739 19.8268L5.71675 21.9029C5.77765 21.9845 5.85256 22.0521 5.93718 22.1018C6.02181 22.1514 6.11449 22.1822 6.20993 22.1924C6.30536 22.2025 6.40167 22.1918 6.49335 22.1609C6.58503 22.1299 6.67027 22.0794 6.74419 22.0121L21.036 9.03695C21.1676 8.91996 21.3317 8.85617 21.5008 8.85617C21.6699 8.85617 21.8339 8.91996 21.9656 9.03695L36.258 22.0121C36.3318 22.0794 36.4169 22.13 36.5084 22.161C36.6 22.1921 36.6962 22.2029 36.7915 22.193C36.8869 22.183 36.9795 22.1525 37.0642 22.103C37.1488 22.0536 37.2238 21.9863 37.2848 21.9049L38.8342 19.8288C38.8952 19.747 38.9409 19.6527 38.9687 19.5513C38.9966 19.45 39.006 19.3436 38.9964 19.2382C38.9868 19.1328 38.9584 19.0306 38.9128 18.9374C38.8672 18.8441 38.8054 18.7617 38.7309 18.6949Z" fill="black"/>
</g>
<defs>
<filter id="filter0_f_58_394" x="0" y="0" width="43" height="38" filterUnits="userSpaceOnUse" color-interpolation-filters="sRGB">
<feFlood flood-opacity="0" result="BackgroundImageFix"/>
<feBlend mode="normal" in="SourceGraphic" in2="BackgroundImageFix" result="shape"/>
<feGaussianBlur stdDeviation="2" result="effect1_foregroundBlur_58_394"/>
</filter>
</defs>
</svg>
