<svg width="25" height="30" viewBox="0 0 25 30" fill="none" xmlns="http://www.w3.org/2000/svg">
<path d="M20.402 15.851C20.4017 15.8383 20.3986 15.965 20.4005 16.0784C20.4028 16.2164 20.4114 16.4053 20.4362 16.6336C20.4857 17.0894 20.6001 17.7052 20.8599 18.3859C21.3518 19.6744 22.3591 21.1768 24.3835 22.2576C23.9434 23.4537 23.1336 25.1575 22.092 26.6203C21.5096 27.4382 20.8676 28.1624 20.1933 28.6807C19.5195 29.1986 18.8441 29.4881 18.1818 29.4988C17.3742 29.498 16.7291 29.2472 15.9661 28.9506L15.9215 28.9333C15.1458 28.6318 14.268 28.2999 13.1111 28.2999C11.927 28.2999 11.0164 28.6175 10.2272 28.9167C10.1673 28.9395 10.1084 28.9619 10.0504 28.984C9.32896 29.2591 8.74292 29.4826 8.06451 29.4989L8.06451 29.4989L8.06083 29.499C7.42289 29.519 6.7437 29.2341 6.04162 28.6832C5.3426 28.1347 4.66447 27.3559 4.04305 26.4769C2.80017 24.7186 1.8411 22.641 1.42935 21.451C0.807454 19.6259 0.5 17.868 0.5 16.1748C0.5 10.5066 4.21939 7.81145 7.64878 7.75355C8.44576 7.75454 9.38612 8.05189 10.3121 8.38393C10.44 8.4298 10.5684 8.47658 10.6958 8.52297C11.0134 8.6387 11.3243 8.75197 11.6043 8.84255C11.9873 8.96647 12.3836 9.07299 12.7192 9.07299C13.0541 9.07299 13.4717 8.94176 13.8699 8.80165C14.0632 8.73363 14.2717 8.65587 14.4872 8.57547C14.5069 8.56812 14.5267 8.56075 14.5465 8.55336C14.7849 8.46446 15.0339 8.37205 15.2929 8.28137C16.3405 7.91459 17.4897 7.60007 18.5576 7.685L18.5584 7.68506C20.7214 7.85374 22.3587 8.64555 23.5018 10.0461C21.441 11.4671 20.39 13.3809 20.402 15.851ZM20.402 15.851C20.402 15.8515 20.402 15.8523 20.402 15.8533H20.902L20.402 15.856C20.402 15.8544 20.402 15.8527 20.402 15.851ZM14.6029 2.66705L14.6029 2.66708L14.6074 2.66181C15.4751 1.64377 16.9351 0.797024 18.2653 0.559401C18.2785 1.42733 18.113 2.91394 16.7602 4.53379C15.6411 5.85163 14.3613 6.61351 13.0071 6.66353C13.0065 5.15391 13.6106 3.79919 14.6029 2.66705Z" fill="black" stroke="black"/>
</svg>
