<svg width="238" height="225" viewBox="0 0 238 225" fill="none" xmlns="http://www.w3.org/2000/svg">
<path d="M0 43.0212V216.954C0 222.64 4.72281 226.527 9.06549 224.417L66.1111 192.857V0L8.31347 28.0999C5.85983 29.2927 3.75648 31.3517 2.27467 34.0113C0.792873 36.6709 0.000587648 39.8091 0 43.0212ZM79.3333 192.857L158.667 225V32.1429L79.3333 0V192.857ZM228.935 0.582589L171.889 32.1429V225L229.687 196.9C232.141 195.708 234.244 193.649 235.726 190.989C237.208 188.33 238 185.191 238 181.979V8.04576C238 2.36049 233.277 -1.52679 228.935 0.582589Z" fill="white"/>
</svg>
