<svg width="60" height="47" viewBox="0 0 60 47" fill="none" xmlns="http://www.w3.org/2000/svg">
<path d="M57 0H15C14.2044 0 13.4413 0.309486 12.8787 0.860374C12.3161 1.41126 12 2.15843 12 2.9375V11.75H27V5.875H45V35.25H57C57.7957 35.25 58.5587 34.9405 59.1213 34.3896C59.6839 33.8387 60 33.0916 60 32.3125V2.9375C60 2.15843 59.6839 1.41126 59.1213 0.860374C58.5587 0.309486 57.7957 0 57 0ZM21.75 9.45508C21.75 9.67419 21.6611 9.88433 21.5029 10.0393C21.3446 10.1942 21.13 10.2812 20.9062 10.2812H18.0938C17.87 10.2812 17.6554 10.1942 17.4971 10.0393C17.3389 9.88433 17.25 9.67419 17.25 9.45508V6.70117C17.25 6.48206 17.3389 6.27192 17.4971 6.11698C17.6554 5.96204 17.87 5.875 18.0938 5.875H20.9062C21.13 5.875 21.3446 5.96204 21.5029 6.11698C21.6611 6.27192 21.75 6.48206 21.75 6.70117V9.45508ZM54.75 28.5488C54.75 28.7679 54.6611 28.9781 54.5029 29.133C54.3446 29.288 54.13 29.375 53.9062 29.375H51.0938C50.87 29.375 50.6554 29.288 50.4971 29.133C50.3389 28.9781 50.25 28.7679 50.25 28.5488V25.7949C50.25 25.5758 50.3389 25.3657 50.4971 25.2107C50.6554 25.0558 50.87 24.9688 51.0938 24.9688H53.9062C54.13 24.9688 54.3446 25.0558 54.5029 25.2107C54.6611 25.3657 54.75 25.5758 54.75 25.7949V28.5488ZM54.75 19.002C54.75 19.2211 54.6611 19.4312 54.5029 19.5861C54.3446 19.7411 54.13 19.8281 53.9062 19.8281H51.0938C50.87 19.8281 50.6554 19.7411 50.4971 19.5861C50.3389 19.4312 50.25 19.2211 50.25 19.002V16.248C50.25 16.0289 50.3389 15.8188 50.4971 15.6639C50.6554 15.5089 50.87 15.4219 51.0938 15.4219H53.9062C54.13 15.4219 54.3446 15.5089 54.5029 15.6639C54.6611 15.8188 54.75 16.0289 54.75 16.248V19.002ZM54.75 9.45508C54.75 9.67419 54.6611 9.88433 54.5029 10.0393C54.3446 10.1942 54.13 10.2812 53.9062 10.2812H51.0938C50.87 10.2812 50.6554 10.1942 50.4971 10.0393C50.3389 9.88433 50.25 9.67419 50.25 9.45508V6.70117C50.25 6.48206 50.3389 6.27192 50.4971 6.11698C50.6554 5.96204 50.87 5.875 51.0938 5.875H53.9062C54.13 5.875 54.3446 5.96204 54.5029 6.11698C54.6611 6.27192 54.75 6.48206 54.75 6.70117V9.45508ZM39 14.6875H3C2.20435 14.6875 1.44129 14.997 0.87868 15.5479C0.316071 16.0988 0 16.8459 0 17.625L0 44.0625C0 44.8416 0.316071 45.5887 0.87868 46.1396C1.44129 46.6905 2.20435 47 3 47H39C39.7957 47 40.5587 46.6905 41.1213 46.1396C41.6839 45.5887 42 44.8416 42 44.0625V17.625C42 16.8459 41.6839 16.0988 41.1213 15.5479C40.5587 14.997 39.7957 14.6875 39 14.6875ZM9 20.5625C9.59334 20.5625 10.1734 20.7348 10.6667 21.0576C11.1601 21.3803 11.5446 21.8391 11.7716 22.3759C11.9987 22.9126 12.0581 23.5033 11.9424 24.0731C11.8266 24.6429 11.5409 25.1663 11.1213 25.5771C10.7018 25.9879 10.1672 26.2677 9.58527 26.3811C9.00333 26.4944 8.40013 26.4362 7.85195 26.2139C7.30377 25.9916 6.83524 25.6151 6.50559 25.132C6.17595 24.6489 6 24.081 6 23.5C6 22.7209 6.31607 21.9738 6.87868 21.4229C7.44129 20.872 8.20435 20.5625 9 20.5625ZM36 41.125H6V38.1875L12 32.3125L15 35.25L27 23.5L36 32.3125V41.125Z" fill="black"/>
</svg>
