<svg width="35" height="30" viewBox="0 0 35 30" fill="none" xmlns="http://www.w3.org/2000/svg">
<path d="M17.036 7.78279L5.83379 17.9524V28.9285C5.83379 29.2126 5.93622 29.4852 6.11853 29.6862C6.30084 29.8871 6.54811 30 6.80594 30L13.6146 29.9806C13.8716 29.9792 14.1176 29.8656 14.2989 29.6648C14.4802 29.464 14.5819 29.1923 14.5819 28.909V22.4992C14.5819 22.215 14.6843 21.9424 14.8666 21.7415C15.049 21.5405 15.2962 21.4276 15.5541 21.4276H19.4426C19.7005 21.4276 19.9477 21.5405 20.1301 21.7415C20.3124 21.9424 20.4148 22.215 20.4148 22.4992V28.9043C20.4144 29.0453 20.4392 29.185 20.4879 29.3154C20.5366 29.4458 20.6081 29.5643 20.6985 29.6642C20.7888 29.7641 20.8961 29.8433 21.0142 29.8974C21.1324 29.9514 21.259 29.9792 21.3869 29.9792L28.1932 30C28.451 30 28.6983 29.8871 28.8806 29.6862C29.0629 29.4852 29.1653 29.2126 29.1653 28.9285V17.9451L17.9656 7.78279C17.8339 7.6658 17.6699 7.60201 17.5008 7.60201C17.3317 7.60201 17.1676 7.6658 17.036 7.78279ZM34.7309 14.6949L29.6514 10.0799V0.803661C29.6514 0.590517 29.5746 0.386103 29.4379 0.235387C29.3011 0.0846713 29.1157 0 28.9223 0H25.5198C25.3264 0 25.141 0.0846713 25.0042 0.235387C24.8675 0.386103 24.7907 0.590517 24.7907 0.803661V5.66648L19.3509 0.733341C18.8289 0.259836 18.1738 0.000946542 17.4977 0.000946542C16.8217 0.000946542 16.1666 0.259836 15.6446 0.733341L0.264606 14.6949C0.190776 14.7622 0.129693 14.8448 0.0848477 14.9381C0.0400026 15.0314 0.0122738 15.1335 0.00324585 15.2387C-0.00578212 15.3438 0.00406762 15.4498 0.0322323 15.5507C0.060397 15.6516 0.106325 15.7454 0.167391 15.8268L1.71675 17.9029C1.77765 17.9845 1.85256 18.0521 1.93718 18.1018C2.02181 18.1514 2.11449 18.1822 2.20993 18.1924C2.30536 18.2025 2.40167 18.1918 2.49335 18.1609C2.58503 18.1299 2.67027 18.0794 2.74419 18.0121L17.036 5.03695C17.1676 4.91996 17.3317 4.85617 17.5008 4.85617C17.6699 4.85617 17.8339 4.91996 17.9656 5.03695L32.258 18.0121C32.3318 18.0794 32.4169 18.13 32.5084 18.161C32.6 18.1921 32.6962 18.2029 32.7915 18.193C32.8869 18.183 32.9795 18.1525 33.0642 18.103C33.1488 18.0536 33.2238 17.9863 33.2848 17.9049L34.8342 15.8288C34.8952 15.747 34.9409 15.6527 34.9687 15.5513C34.9966 15.45 35.006 15.3436 34.9964 15.2382C34.9868 15.1328 34.9584 15.0306 34.9128 14.9374C34.8672 14.8441 34.8054 14.7617 34.7309 14.6949Z" fill="black"/>
</svg>
