<svg width="30" height="30" viewBox="0 0 30 30" fill="none" xmlns="http://www.w3.org/2000/svg">
<path d="M11.6076 7.4123C11.7277 7.69255 11.7532 8.00429 11.6802 8.30033C11.6073 8.59636 11.4399 8.86057 11.2033 9.05295L7.65248 11.9593C9.80302 16.5204 13.4737 20.1911 18.0349 22.3417L20.9412 18.7908C21.1339 18.5548 21.3981 18.3877 21.694 18.3148C21.9899 18.2419 22.3015 18.267 22.5818 18.3865M11.6076 7.4123L8.79507 0.849679M11.6076 7.4123L10.6885 7.80621L10.6884 7.80609M11.6076 7.4123L10.6884 7.80609M8.79507 0.849679C8.6633 0.547569 8.43025 0.300907 8.13609 0.152225M8.79507 0.849679L7.87847 1.24947C7.87817 1.24878 7.87787 1.2481 7.87756 1.24741M8.79507 0.849679L7.87593 1.2436L7.87756 1.24741M8.13609 0.152225C7.84193 0.00354214 7.50512 -0.0378408 7.18372 0.0352115M8.13609 0.152225L7.68499 1.0447C7.77068 1.08801 7.83872 1.15965 7.87756 1.24741M8.13609 0.152225L7.68499 1.0447C7.59896 1.00122 7.50052 0.988988 7.40649 1.01008L7.40858 1.0096L7.18372 0.0352115M7.18372 0.0352115L1.08986 1.44149C0.779996 1.51304 0.503531 1.68751 0.305592 1.93643C0.107653 2.18534 -7.13807e-05 2.494 0 2.81202C0 17.8416 12.1819 30 27.188 30C27.5061 30.0002 27.8149 29.8925 28.0639 29.6946M7.18372 0.0352115L7.40536 1.01034L1.31486 2.41585L1.08991 1.44171L1.31472 2.41588C1.22526 2.43657 1.14544 2.48696 1.08829 2.55883C1.0311 2.63075 0.999979 2.71992 1 2.81179L1 2.81202C1 17.2887 12.7336 29 27.188 29H27.1886C27.2805 29.0001 27.3697 28.969 27.4417 28.9118L28.0639 29.6946M28.0639 29.6946C28.313 29.4966 28.4875 29.2201 28.5591 28.9101M28.0639 29.6946L27.4417 28.9118C27.5136 28.8546 27.564 28.7748 27.5847 28.6853L28.5591 28.9101M28.5591 28.9101L29.9654 22.8163M28.5591 28.9101L27.5847 28.6851L28.9897 22.597L29.9654 22.8163M29.9654 22.8163C30.0379 22.4933 29.9957 22.1552 29.8459 21.86C29.696 21.5648 29.448 21.3311 29.1445 21.1991M29.9654 22.8163L28.991 22.5914L28.9902 22.5949C29.0111 22.4995 28.9984 22.3998 28.9542 22.3126C28.9099 22.2254 28.8368 22.1562 28.7473 22.1168L28.7505 22.1182L29.1445 21.1991M29.1445 21.1991L22.5818 18.3865M29.1445 21.1991L28.7456 22.1161L22.1898 19.3065L22.5818 18.3865M22.5818 18.3865L22.1879 19.3057L22.189 19.3061C22.1082 19.2719 22.0185 19.2647 21.9333 19.2857C21.8478 19.3068 21.7715 19.3551 21.7158 19.4233L21.715 19.4242L18.8087 22.975L18.3144 23.579L17.6084 23.2462C12.8372 20.9966 8.99754 17.1569 6.74797 12.3857L6.41512 11.6798L7.0191 11.1854L10.5699 8.27911L10.5723 8.27715C10.6403 8.22191 10.6883 8.14606 10.7093 8.06106C10.7302 7.97606 10.7229 7.88655 10.6884 7.80609M10.6884 7.80609L7.87756 1.24741" fill="#078804" stroke="white" stroke-width="2"/>
</svg>
