<svg width="15" height="18" viewBox="0 0 15 18" fill="none" xmlns="http://www.w3.org/2000/svg">
<g clip-path="url(#clip0_1_5)">
<path d="M14.8807 6.15601C10.7283 1.54717 4.27009 1.54886 0.119307 6.15601C-0.0367863 6.32926 -0.0398332 6.62261 0.111104 6.80232L0.913604 7.75773C1.05751 7.92929 1.28907 7.93295 1.4386 7.76842C4.8586 4.00867 10.1409 4.00782 13.5617 7.76842C13.7112 7.93295 13.9427 7.92901 14.0867 7.75773L14.8892 6.80232C15.0399 6.62261 15.0368 6.32926 14.8807 6.15601ZM7.50001 11.7C6.67149 11.7 6.00001 12.5058 6.00001 13.5C6.00001 14.4942 6.67149 15.3 7.50001 15.3C8.32853 15.3 9.00001 14.4942 9.00001 13.5C9.00001 12.5058 8.32853 11.7 7.50001 11.7ZM12.2501 9.34904C9.54868 6.48226 5.44829 6.48536 2.74993 9.34904C2.58821 9.52061 2.58306 9.81845 2.73657 10.0001L3.54376 10.9561C3.68439 11.1226 3.91079 11.1339 4.06056 10.9786C6.02813 8.93758 8.97634 8.94208 10.9392 10.9786C11.089 11.1339 11.3154 11.1229 11.456 10.9561L12.2632 10.0001C12.417 9.81845 12.4116 9.52033 12.2501 9.34904Z" fill="white"/>
</g>
<defs>
<clipPath id="clip0_1_5">
<rect width="15" height="18" fill="white"/>
</clipPath>
</defs>
</svg>
